<?xml version="1.0" standalone="no"?><!DOCTYPE svg PUBLIC "-//W3C//DTD SVG 1.1//EN" "http://www.w3.org/Graphics/SVG/1.1/DTD/svg11.dtd"><svg t="1718420673268" class="icon" viewBox="0 0 1024 1024" version="1.1" xmlns="http://www.w3.org/2000/svg" p-id="10706" width="64" height="64" xmlns:xlink="http://www.w3.org/1999/xlink"><path d="M617.0624 619.6736m-212.7872 0a212.7872 212.7872 0 1 0 425.5744 0 212.7872 212.7872 0 1 0-425.5744 0Z" fill="#FF8080" p-id="10707"></path><path d="M630.4256 830.464H423.424c-46.4896 0-84.2752-37.7856-84.2752-84.2752v-35.2256c0-1.0752-0.512-2.1504-1.4336-2.7648-92.7232-64.7168-145.6128-170.8032-141.568-283.7504 6.1952-170.6496 144.5888-310.4768 315.0848-318.3616 91.3408-4.2496 178.176 28.16 244.224 91.1872 66.048 63.0784 102.4512 148.1216 102.4512 239.4112 0 107.9808-52.9408 209.4592-141.6704 271.4112a3.4816 3.4816 0 0 0-1.536 2.8672v35.1744c0 46.4896-37.7856 84.3264-84.2752 84.3264zM527.0528 156.8768c-4.4544 0-8.96 0.1024-13.4144 0.3072C369.5104 163.84 252.5696 282.0096 247.3472 426.24c-3.4304 95.5392 41.2672 185.1904 119.7056 239.9232 14.592 10.1888 23.3472 26.9312 23.3472 44.7488v35.2256c0 18.2272 14.848 33.0752 33.0752 33.0752h206.9504c18.2272 0 33.0752-14.848 33.0752-33.0752v-35.1744c0-17.8176 8.7552-34.56 23.4496-44.8 75.008-52.3776 119.7568-138.1888 119.7568-229.4784 0-77.2096-30.7712-149.0432-86.5792-202.3936-52.5824-50.176-120.7296-77.4144-193.0752-77.4144zM709.1712 922.3168H344.6784c-14.1312 0-25.6-11.4688-25.6-25.6s11.4688-25.6 25.6-25.6h364.4416c14.1312 0 25.6 11.4688 25.6 25.6s-11.4176 25.6-25.5488 25.6z" fill="#512C56" p-id="10708"></path></svg>