<svg xmlns:xlink="http://www.w3.org/1999/xlink" xmlns="http://www.w3.org/2000/svg" version="1.1" viewBox="0 0 1024 1024" height="1024px" width="1024px">
    <title>交流</title>
    <g fill-rule="evenodd" fill="none" stroke-width="1" stroke="none" id="交流">
        <rect height="1024" width="1024" y="0" x="0" fill="#FFFFFF" id="矩形"></rect>
        <g fill-rule="nonzero" transform="translate(0.000000, 207.000000)" id="1">
            <path fill="#E5E7FF" id="形状" d="M128.781465,85.7957146 C123.945126,90.8998636 106.316908,107.267798 99.542883,104.542435 C91.0884798,101.150171 82.4135271,95.5156526 73.5180246,87.6388795 C55.937067,69.2859982 47.3671379,46.9474696 60.8521734,23.0650935 C75.8337959,-3.44812479 112.933397,-8.45775249 133.476022,15.1410598 C153.152201,37.7316451 146.031598,64.2763705 128.781465,85.7957146 Z M112.964904,35.7624518 C112.964904,28.4540794 107.040298,22.5294729 99.7319255,22.5294729 C92.4235531,22.5294729 86.4989467,28.4540794 86.4989467,35.7624518 C86.4989467,43.0708242 92.4235531,48.9954306 99.7319255,48.9954306 C107.040298,48.9954306 112.964904,43.0708242 112.964904,35.7624518 L112.964904,35.7624518 Z"></path>
            <path fill="#7579C8" id="路径" d="M421.923453,20.3082229 C419.738961,17.5040917 417.82228,16.1440355 416.173409,16.2280545 C409.619933,16.5746325 402.80915,16.763675 395.741059,16.7951821 C394.197212,-1.27413541 372.094986,-0.155633627 371.023745,16.9212105 L349.961254,16.8581963 C349.394126,16.8581963 348.932022,17.0839971 348.574942,17.5355988 C347.524705,18.8904038 346.52173,19.3104983 345.566014,18.7958825 C346.400952,12.7622743 360.059277,14.7314676 368.20386,14.7944817 C368.760486,14.7944817 369.101813,14.5266715 369.227841,13.9910509 C373.181981,-2.26660882 393.693098,-2.39263719 397.489703,14.1013257 C397.605229,14.6264439 397.936053,14.8785007 398.482176,14.8574959 C404.878116,14.6474486 411.232046,14.5739321 417.543967,14.6369463 C421.151529,14.6842069 422.679623,16.9054569 421.923453,20.3082229 Z"></path>
            <path fill="#FDFDFD" id="路径" d="M395.741059,16.7951821 C396.434215,17.6458736 396.140149,18.638347 394.858861,19.7726024 C394.459771,20.1191804 393.997667,20.281967 393.472549,20.2609623 L372.677868,19.473285 C372.273247,19.4636897 371.896341,19.25168 371.669641,18.9061573 C371.239044,18.2760155 371.023745,17.6143665 371.023745,16.9212105 C372.094986,-0.155633627 394.197212,-1.27413541 395.741059,16.7951821 Z"></path>
            <path fill="#E5ECFF" id="形状" d="M421.923453,20.3082229 C442.728636,19.5415503 463.371033,19.7778535 483.850643,21.0171325 C485.373486,26.42585 486.061391,31.1676675 485.914358,35.2425848 C485.315723,51.7207941 486.623267,68.9236666 486.040386,86.0635249 C485.221202,110.749332 485.61504,141.941353 485.173941,187.295813 C485.142434,191.029403 483.031459,195.597932 479.17184,195.6767 C439.304866,196.590405 374.011668,196.795201 283.292246,196.291088 C279.905234,196.275334 277.936041,195.18834 274.942867,193.833535 C272.327778,182.963588 273.304498,171.605281 273.146962,160.499031 C272.564081,116.814447 273.320251,73.0353422 273.146962,29.3350049 C273.13646,26.9824753 273.735095,24.5301733 274.942867,21.9780988 C275.163416,21.5159948 275.520497,21.2166774 276.014108,21.0801467 C277.97805,20.5760332 279.269841,20.3134741 279.88948,20.2924694 C300.23256,19.819863 320.58089,19.7095882 340.934472,19.9616449 C342.415305,19.9721473 343.959153,19.5835598 345.566014,18.7958825 C346.52173,19.3104983 347.524705,18.8904038 348.574942,17.5355988 C348.932022,17.0839971 349.394126,16.8581963 349.961254,16.8581963 L371.023745,16.9212105 C371.023745,17.6143665 371.239044,18.2760155 371.669641,18.9061573 C371.896341,19.25168 372.273247,19.4636897 372.677868,19.473285 L393.472549,20.2609623 C393.997667,20.281967 394.459771,20.1191804 394.858861,19.7726024 C396.140149,18.638347 396.434215,17.6458736 395.741059,16.7951821 C402.80915,16.763675 409.619933,16.5746325 416.173409,16.2280545 C417.82228,16.1440355 419.738961,17.5040917 421.923453,20.3082229 Z M455.323177,40.6151742 C456.044412,37.3619063 453.764572,34.0895554 450.231,33.3061588 C448.534105,32.9299469 446.769116,33.1897623 445.324312,34.0284479 C443.879509,34.8671335 442.873244,36.2159878 442.526886,37.7782756 C441.80565,41.0315434 444.085491,44.3038943 447.619062,45.0872909 C449.315957,45.4635028 451.080947,45.2036875 452.52575,44.3650019 C453.970554,43.5263163 454.976819,42.1774619 455.323177,40.6151742 L455.323177,40.6151742 Z M350.355093,83.6059717 C350.127091,84.0962001 349.700291,84.4650315 349.185969,84.6163026 C348.671648,84.7675736 348.12078,84.6862917 347.67699,84.393649 L343.659835,81.7943139 C343.208234,81.51075 342.740879,81.4792429 342.25777,81.6997926 C338.051573,83.6217252 335.846076,89.8916366 333.719348,93.8142696 C326.850802,106.448614 314.421254,79.4155284 310.545881,72.7517783 C304.071174,61.6297747 296.493718,74.1695975 294.571785,79.9038883 C294.456449,80.2266815 294.606738,80.5841127 294.918088,80.7274975 C295.229437,80.8708823 295.598741,80.7527373 295.769055,80.4552624 C298.163594,76.4381081 303.346511,64.292124 309.017787,74.1380904 C313.318505,81.6052713 322.424055,101.391725 331.120013,98.3355374 C335.846076,96.6656615 338.555686,89.009438 340.776936,84.5826915 C341.10022,83.9485305 341.723811,83.5217021 342.429691,83.4514335 C343.135572,83.3811648 343.825578,83.6772279 344.25847,84.2361135 C345.875834,86.3470887 347.808269,87.077003 350.055775,86.4258565 C350.523631,86.2939417 350.930243,86.0043006 351.205784,85.6066721 L354.955128,80.2504663 C355.116461,80.0220611 355.37653,79.8836706 355.656099,79.877458 C355.935668,79.8712453 356.201627,79.9979463 356.372947,80.2189592 C366.077132,93.0265923 376.505979,77.241539 381.893692,84.0785781 C384.424762,87.2817991 387.160628,90.2907265 390.10129,93.1053601 C398.041077,100.730076 402.483577,95.1375675 408.217868,89.4820444 C408.616958,89.0829546 409.047555,89.0461963 409.509659,89.3717696 C412.108994,91.1676739 414.330244,93.420431 417.575474,93.1998813 C423.766618,92.7745356 427.563223,85.921743 430.194065,81.51075 C430.477629,81.0381436 430.860965,80.9383712 431.344074,81.2114327 C450.405865,92.065626 461.685404,62.8112907 474.398516,69.5065478 C474.789929,69.6965147 475.261395,69.5727582 475.509045,69.215041 C475.756695,68.8573239 475.706576,68.3724701 475.390989,68.0729751 C464.174464,57.7859094 447.239402,91.0889061 432.856414,79.4785426 C432.137498,78.9026384 431.20168,78.672057 430.297502,78.8480378 C429.393325,79.0240187 428.6123,79.5887509 428.161857,80.3922482 C425.977366,84.2991277 423.220495,87.7281496 419.891246,90.6793139 C419.397634,91.1204132 418.814753,91.3199581 418.142602,91.2779487 C415.254452,91.0784038 412.76014,89.8968878 410.659667,87.7334008 C410.260578,87.3238086 409.78272,87.2030314 409.226095,87.3710692 C402.294534,89.4820444 399.2541,100.556787 391.030749,91.892337 C387.669992,88.3530403 384.64006,85.0080373 381.940953,81.857328 C380.574976,80.2534647 378.343056,79.6907427 376.379951,80.4552624 L367.40043,83.9525497 C365.67726,84.6217677 363.722504,84.2757395 362.327788,83.0545976 L356.861307,78.3127801 C356.35769,77.8751493 355.625205,77.8237468 355.065403,78.1867518 C352.975432,79.5100497 351.405329,81.3164563 350.355093,83.6059717 Z M406.122649,127.068588 C406.122649,126.567216 405.921602,126.086727 405.566457,125.732823 C405.211313,125.37892 404.730127,125.180592 404.228755,125.181468 L298.018504,125.366732 C297.517131,125.367609 297.036642,125.567619 296.682739,125.922764 C296.328836,126.277908 296.131383,126.759094 296.131383,127.260466 L296.131383,127.354987 C296.131383,127.85636 296.332431,128.336849 296.687575,128.690752 C297.042719,129.044655 297.523905,129.242983 298.025278,129.242108 L404.235529,129.056843 C404.736901,129.055966 405.21739,128.855956 405.571293,128.500812 C405.925197,128.145668 406.122649,127.664481 406.122649,127.163109 L406.122649,127.068588 Z M364.848355,134.50568 C364.848355,133.418124 363.966717,132.536486 362.879162,132.536486 L310.923966,132.536486 C309.836411,132.536486 308.954773,133.418124 308.954773,134.50568 L308.954773,136.049527 C308.954773,137.137082 309.836411,138.01872 310.923966,138.01872 L362.879162,138.01872 C363.966717,138.01872 364.848355,137.137082 364.848355,136.049527 L364.848355,134.50568 Z M325.842575,144.19411 C325.842575,142.958648 324.841034,141.957107 323.605571,141.957107 L298.36839,141.957107 C297.132927,141.957107 296.131386,142.958648 296.131386,144.19411 L296.131386,146.777692 C296.131386,148.013155 297.132927,149.014696 298.36839,149.014696 L323.605571,149.014696 C324.841034,149.014696 325.842575,148.013155 325.842575,146.777692 L325.842575,144.19411 Z M400.938469,144.91452 C400.937217,144.191708 400.648879,143.498999 400.136888,142.98878 C399.624897,142.478561 398.931191,142.192628 398.20838,142.193879 L344.583466,142.287459 C343.860654,142.288711 343.167945,142.577049 342.657726,143.08904 C342.147507,143.601031 341.861574,144.294737 341.862824,145.017548 L341.865191,146.372353 C341.866444,147.095165 342.154781,147.787875 342.666773,148.298093 C343.178764,148.808312 343.872469,149.094245 344.595281,149.092995 L398.220195,148.999415 C398.943006,148.998162 399.635716,148.709825 400.145935,148.197834 C400.656153,147.685842 400.942087,146.992137 400.940836,146.269325 L400.938469,144.91452 Z M412.061733,162.89357 C412.061733,161.806014 411.180095,160.924377 410.09254,160.924377 L297.958798,160.924377 C296.871242,160.924377 295.989604,161.806014 295.989604,162.89357 L295.989604,163.145627 C295.989604,164.233182 296.871242,165.11482 297.958798,165.11482 L410.09254,165.11482 C411.180095,165.11482 412.061733,164.233182 412.061733,163.145627 L412.061733,162.89357 Z"></path>
            <path fill="#CECDF8" id="路径" d="M483.850643,21.0171325 C486.696784,24.0418134 488.125105,26.2893193 488.135608,27.7596503 C488.335153,81.3742193 488.518944,134.988788 488.68707,188.603357 C488.702736,194.085591 486.607514,199.567825 480.479384,199.788375 C454.202469,200.717834 425.704304,199.583579 401.869189,199.504811 C364.753834,199.368281 327.638479,199.447048 290.523124,199.741114 C284.521023,199.788375 277.810012,199.662347 274.942867,193.833535 C277.936041,195.18834 279.905234,196.275334 283.292246,196.291088 C374.011668,196.795201 439.304866,196.590405 479.17184,195.6767 C483.031459,195.597932 485.142434,191.029403 485.173941,187.295813 C485.61504,141.941353 485.221202,110.749332 486.040386,86.0635249 C486.623267,68.9236666 485.315723,51.7207941 485.914358,35.2425848 C486.061391,31.1676675 485.373486,26.42585 483.850643,21.0171325 Z"></path>
            <circle r="13.2329788" cy="35.7624518" cx="99.7319255" fill="#FFB25B" id="椭圆形"></circle>
            <ellipse ry="6.03360821" rx="6.55347523" cy="39.1967249" cx="448.925031" transform="translate(448.925031, 39.196725) rotate(12.500000) translate(-448.925031, -39.196725)" fill="#FFB25B" id="椭圆形"></ellipse>
            <path fill="#E5E7FF" id="形状" d="M915.482056,143.028348 C888.716781,150.32224 859.887792,134.631708 850.435664,108.764385 C843.189033,88.9464239 847.537012,66.2613173 862.99124,51.5002445 C895.443546,20.4657584 945.019956,38.5823366 955.2125,80.2662199 C955.413456,81.0892695 956.145505,81.6723172 956.992651,81.684039 C966.460532,81.7628068 982.277092,78.249766 983.080523,92.6170001 C983.469111,99.3595179 983.442855,106.086282 983.001756,112.797293 C982.970248,113.269899 982.712941,113.527207 982.229832,113.569217 L981.473662,113.616477 C980.854022,113.668989 980.544202,113.385425 980.544202,112.765786 C980.544202,107.157523 981.851747,92.7115214 979.504468,88.2060072 C976.637323,82.6607589 962.805709,84.3778954 957.748821,84.8347483 C956.769172,84.9268639 956.034078,85.7590455 956.078945,86.7251738 C957.354982,113.679491 940.482934,136.207063 915.482056,143.028348 Z M925.749115,127.132547 C945.82471,113.642197 951.01367,86.2091917 937.338999,65.8591292 C923.664272,45.5090289 896.30416,39.948081 876.228473,53.4384033 C856.152878,66.9287532 850.963917,94.3617589 864.638589,114.711821 C878.313315,135.061922 905.673428,140.62287 925.749115,127.132547 L925.749115,127.132547 Z"></path>
            <path fill="#5459FF" id="形状" d="M925.749115,127.132547 C905.673428,140.62287 878.313315,135.061922 864.638589,114.711821 C850.963917,94.3617589 856.152878,66.9287532 876.228473,53.4384033 C896.30416,39.948081 923.664272,45.5090289 937.338999,65.8591292 C951.01367,86.2091917 945.82471,113.642197 925.749115,127.132547 L925.749115,127.132547 Z M890.748989,107.267798 L886.66882,120.217213 C886.442738,120.964593 886.79112,121.769933 887.489972,122.115433 C888.188824,122.460933 889.030124,122.243751 889.472952,121.603525 L899.68125,106.952727 L915.072464,107.40958 C916.500786,107.451589 917.251705,106.763685 917.325221,105.345865 L919.467704,63.8037641 C919.499211,63.2156317 919.215647,62.9058119 918.617012,62.8743048 L883.943457,61.0153864 C883.642951,60.9981624 883.348464,61.1045242 883.128318,61.3097954 C882.908172,61.5150667 882.781501,61.8014059 882.777694,62.1023811 L881.942435,105.708197 C881.934288,106.123082 882.093196,106.523909 882.383647,106.820287 C882.674097,107.116665 883.071632,107.283638 883.486604,107.283552 L890.748989,107.267798 Z"></path>
            <path fill="#FE9A29" id="形状" d="M899.68125,106.952727 C896.015924,106.196557 893.038504,106.301581 890.748989,107.267798 L883.486604,107.283552 C883.071632,107.283638 882.674097,107.116665 882.383647,106.820287 C882.093196,106.523909 881.934288,106.123082 881.942435,105.708197 L882.777694,62.1023811 C882.781501,61.8014059 882.908172,61.5150667 883.128318,61.3097954 C883.348464,61.1045242 883.642951,60.9981624 883.943457,61.0153864 L918.617012,62.8743048 C919.215647,62.9058119 919.499211,63.2156317 919.467704,63.8037641 L917.325221,105.345865 C917.251705,106.763685 916.500786,107.451589 915.072464,107.40958 L899.68125,106.952727 Z M903.036755,66.2455637 C898.184663,67.175023 896.829858,66.5448811 892.560647,64.5599343 C891.722932,64.1678973 890.724665,64.4338016 890.192963,65.1906047 C889.66126,65.9474079 889.749568,66.9767005 890.402411,67.6318758 C894.015224,71.2761962 898.478729,72.8147925 903.792925,72.2476648 C904.34955,72.195153 904.61211,71.8905845 904.580602,71.3339592 L904.344299,67.2695442 C904.322025,66.9506857 904.166287,66.6562432 903.9164,66.4605484 C903.666512,66.2648536 903.346357,66.1866077 903.036755,66.2455637 Z M886.18046,89.7341012 C886.44302,90.4167548 886.537541,90.999636 886.464024,91.4827448 C885.791873,92.5119765 885.665845,93.59372 886.085939,94.7279753 L886.022925,96.8862112 L886.290735,103.360919 C886.315456,103.86677 886.72209,104.266513 887.220195,104.274624 L911.716959,104.684484 C912.336598,104.694719 912.667423,104.395402 912.709432,103.786264 C913.024503,99.5012998 912.614911,95.4998991 911.480656,91.7820622 C910.850514,89.9651532 910.792751,89.497798 911.307367,90.3799966 L908.692278,77.8244202 C908.513244,76.9672581 907.794235,76.3317057 906.927881,76.2648191 L887.59828,74.673711 C887.244138,74.6430054 886.89323,74.7632422 886.63008,75.0054595 C886.366931,75.2476767 886.215393,75.5899185 886.211968,75.9497482 L886.18046,89.7341012 Z"></path>
            <path fill="#FDFDFD" id="路径" d="M892.560647,64.5599343 C896.829858,66.5448811 898.184663,67.175023 903.036755,66.2455637 C903.346357,66.1866077 903.666512,66.2648536 903.9164,66.4605484 C904.166287,66.6562432 904.322025,66.9506857 904.344299,67.2695442 L904.580602,71.3339592 C904.61211,71.8905845 904.34955,72.195153 903.792925,72.2476648 C898.478729,72.8147925 894.015224,71.2761962 890.402411,67.6318758 C889.749568,66.9767005 889.66126,65.9474079 890.192963,65.1906047 C890.724665,64.4338016 891.722932,64.1678973 892.560647,64.5599343 L892.560647,64.5599343 Z"></path>
            <path fill="#3127BF" id="路径" d="M350.355093,83.6059717 C351.405329,81.3164563 352.975432,79.5100497 355.065403,78.1867518 C355.625205,77.8237468 356.35769,77.8751493 356.861307,78.3127801 L362.327788,83.0545976 C363.722504,84.2757395 365.67726,84.6217677 367.40043,83.9525497 L376.379951,80.4552624 C378.343056,79.6907427 380.574976,80.2534647 381.940953,81.857328 C384.64006,85.0080373 387.669992,88.3530403 391.030749,91.892337 C399.2541,100.556787 402.294534,89.4820444 409.226095,87.3710692 C409.78272,87.2030314 410.260578,87.3238086 410.659667,87.7334008 C412.76014,89.8968878 415.254452,91.0784038 418.142602,91.2779487 C418.814753,91.3199581 419.397634,91.1204132 419.891246,90.6793139 C423.220495,87.7281496 425.977366,84.2991277 428.161857,80.3922482 C428.6123,79.5887509 429.393325,79.0240187 430.297502,78.8480378 C431.20168,78.672057 432.137498,78.9026384 432.856414,79.4785426 C447.239402,91.0889061 464.174464,57.7859094 475.390989,68.0729751 C475.706576,68.3724701 475.756695,68.8573239 475.509045,69.215041 C475.261395,69.5727582 474.789929,69.6965147 474.398516,69.5065478 C461.685404,62.8112907 450.405865,92.065626 431.344074,81.2114327 C430.860965,80.9383712 430.477629,81.0381436 430.194065,81.51075 C427.563223,85.921743 423.766618,92.7745356 417.575474,93.1998813 C414.330244,93.420431 412.108994,91.1676739 409.509659,89.3717696 C409.047555,89.0461963 408.616958,89.0829546 408.217868,89.4820444 C402.483577,95.1375675 398.041077,100.730076 390.10129,93.1053601 C387.160628,90.2907265 384.424762,87.2817991 381.893692,84.0785781 C376.505979,77.241539 366.077132,93.0265923 356.372947,80.2189592 C356.201627,79.9979463 355.935668,79.8712453 355.656099,79.877458 C355.37653,79.8836706 355.116461,80.0220611 354.955128,80.2504663 L351.205784,85.6066721 C350.930243,86.0043006 350.523631,86.2939417 350.055775,86.4258565 C347.808269,87.077003 345.875834,86.3470887 344.25847,84.2361135 C343.825578,83.6772279 343.135572,83.3811648 342.429691,83.4514335 C341.723811,83.5217021 341.10022,83.9485305 340.776936,84.5826915 C338.555686,89.009438 335.846076,96.6656615 331.120013,98.3355374 C322.424055,101.391725 313.318505,81.6052713 309.017787,74.1380904 C303.346511,64.292124 298.163594,76.4381081 295.769055,80.4552624 C295.598741,80.7527373 295.229437,80.8708823 294.918088,80.7274975 C294.606738,80.5841127 294.456449,80.2266815 294.571785,79.9038883 C296.493718,74.1695975 304.071174,61.6297747 310.545881,72.7517783 C314.421254,79.4155284 326.850802,106.448614 333.719348,93.8142696 C335.846076,89.8916366 338.051573,83.6217252 342.25777,81.6997926 C342.740879,81.4792429 343.208234,81.51075 343.659835,81.7943139 L347.67699,84.393649 C348.12078,84.6862917 348.671648,84.7675736 349.185969,84.6163026 C349.700291,84.4650315 350.127091,84.0962001 350.355093,83.6059717 Z"></path>
            <path fill="#FDFDFD" id="形状" d="M911.307367,90.3799966 L886.18046,89.7341012 L886.211968,75.9497482 C886.215393,75.5899185 886.366931,75.2476767 886.63008,75.0054595 C886.89323,74.7632422 887.244138,74.6430054 887.59828,74.673711 L906.927881,76.2648191 C907.794235,76.3317057 908.513244,76.9672581 908.692278,77.8244202 L911.307367,90.3799966 Z M909.102381,86.0310726 C909.104275,85.8472332 909.033093,85.670157 908.904457,85.5388038 C908.775822,85.4074506 908.600273,85.3325818 908.416433,85.3306699 L888.914646,85.126504 C888.730807,85.124572 888.55373,85.1957542 888.422377,85.3243893 C888.291024,85.4530244 888.216155,85.6285738 888.214243,85.8124134 L888.212157,86.0014559 C888.210263,86.1852953 888.281446,86.3623715 888.410081,86.4937247 C888.538716,86.6250779 888.714265,86.6999467 888.898105,86.7018586 L908.399892,86.9060245 C908.583732,86.9079565 908.760808,86.8367743 908.892161,86.7081392 C909.023514,86.5795041 909.098383,86.4039547 909.100295,86.2201151 L909.102381,86.0310726 Z"></path>
            <path fill="#E5ECFF" id="形状" d="M717.270938,230.822861 L705.140707,240.432524 C704.776282,240.725281 704.294033,240.826564 703.842623,240.70515 C703.391214,240.583737 703.024839,240.254203 702.856443,239.818136 L694.065964,217.022755 C690.379634,203.191141 687.522991,189.01295 685.496035,174.48818 C685.424332,173.977902 685.524034,173.457238 685.779599,173.007347 C690.552923,164.720981 693.719386,159.931903 692.254306,148.668118 C692.223746,148.422454 692.093121,148.200305 691.8933,148.054167 C691.69348,147.90803 691.442191,147.850869 691.198819,147.896194 L688.725512,148.353047 C688.116375,148.468573 687.811806,148.216516 687.811806,147.596876 C687.906328,137.399081 686.94011,127.316811 684.913154,117.350068 C684.829637,116.952032 684.546822,116.624582 684.167022,116.48618 C683.787221,116.347779 683.365429,116.418464 683.054235,116.672665 C681.463127,117.964456 680.67545,126.928224 680.328872,129.35427 C680.150332,130.667065 679.982294,130.661814 679.824758,129.338516 L678.611735,119.067204 C678.479364,118.139622 677.648143,117.468621 676.714096,117.535339 C675.780048,117.602057 675.065555,118.383466 675.082941,119.319261 L675.634315,137.798171 C675.634315,137.934701 675.571301,137.992464 675.445273,137.97146 C675.03568,137.908446 674.825633,137.672142 674.815131,137.26255 C674.647093,132.084885 673.575852,126.970233 671.601407,121.918596 C671.401667,121.40449 670.880241,121.089851 670.3323,121.15279 C669.784358,121.215729 669.347853,121.640401 669.269882,122.186406 L668.702755,125.983011 L521.848197,126.550139 C520.992564,126.567464 520.282967,127.217655 520.19109,128.068517 C520.099212,128.919379 520.653654,129.706064 521.485865,129.905644 C522.893182,130.210213 524.673333,130.357246 526.826317,130.346743 C573.97143,130.19971 621.279329,129.926649 668.750015,129.527559 C669.495683,140.28198 668.960063,151.398732 667.143154,162.877816 C663.189014,161.586026 658.447196,162.326442 655.595804,162.168907 C651.142802,161.91685 646.684548,161.78557 642.221044,161.775068 C602.007491,161.628035 561.793939,161.617533 521.580386,161.743561 C520.908235,161.754063 520.509145,162.090139 520.383117,162.751788 L520.068046,164.421664 C519.997392,164.791774 520.096045,165.174083 520.336963,165.463795 C520.57788,165.753506 520.935787,165.920224 521.312576,165.918251 L666.765069,165.634687 L657.045131,229.704359 L654.713606,254.579209 C629.838756,256.264838 604.633082,255.225104 579.695219,254.973048 C577.122139,254.94154 572.936947,255.298621 567.139642,256.044289 C565.784837,245.646948 566.036894,231.594785 551.338835,231.468757 C534.188475,231.342728 517.132635,231.321723 500.171317,231.405742 C500.024284,183.399436 500.092549,135.471897 500.376113,87.623126 C500.391867,83.9210426 500.155564,78.1709982 505.55903,78.1237376 C572.721649,77.5776147 639.879016,77.3990745 707.031133,77.588117 C712.292817,77.6038706 717.081895,79.0689504 717.066142,84.9607767 C716.961118,133.061604 717.029383,181.682299 717.270938,230.822861 Z M518.555706,99.3280108 C517.400446,100.829849 516.644275,102.594246 516.287195,104.621202 C516.182171,105.261847 516.449982,105.597922 517.090626,105.629429 L529.094828,106.291078 C529.829994,106.333088 530.255339,105.991761 530.370865,105.267098 C530.675434,103.271649 529.861501,101.958853 527.929066,101.328711 C527.487966,101.19218 527.403947,100.929621 527.677009,100.541034 C528.118108,99.910892 528.354411,99.3280108 528.385918,98.7923902 C531.631149,84.5196774 510.946743,87.5916189 518.555706,99.3280108 Z M695.720087,103.471193 C695.720087,101.870312 694.422316,100.572541 692.821434,100.572541 L600.316611,100.572541 C598.715729,100.572541 597.417958,101.870312 597.417958,103.471193 L597.417958,104.353392 C597.417958,105.954274 598.715729,107.252045 600.316611,107.252045 L692.821434,107.252045 C694.422316,107.252045 695.720087,105.954274 695.720087,104.353392 L695.720087,103.471193 Z M608.146126,117.477671 C608.144922,116.880203 607.906577,116.30762 607.483364,115.885884 C607.060152,115.464149 606.486739,115.227807 605.88927,115.228849 L522.017547,115.375361 C521.420079,115.376404 520.847496,115.614749 520.42576,116.037962 C520.004025,116.461175 519.767683,117.034588 519.768725,117.632056 L519.768725,117.69507 C519.76993,118.292539 520.008275,118.865122 520.431487,119.286858 C520.8547,119.708593 521.428113,119.944935 522.025582,119.943893 L605.897304,119.797381 C606.494773,119.796337 607.067356,119.557993 607.489092,119.13478 C607.910827,118.711567 608.147168,118.138154 608.146126,117.540686 L608.146126,117.477671 Z M696.570305,127.496769 C696.567849,127.145806 696.426069,126.810194 696.176158,126.563769 C695.926246,126.317344 695.588676,126.180292 695.237713,126.182766 L689.251523,126.224513 C688.52074,126.229628 687.932456,126.826165 687.937487,127.556948 L687.938307,127.682976 C687.940764,128.033939 688.082544,128.369551 688.332455,128.615976 C688.582367,128.862402 688.919937,128.999453 689.2709,128.99698 L695.25709,128.955233 C695.987873,128.950117 696.576157,128.353581 696.571126,127.622798 L696.570305,127.496769 Z M622.056059,140.491397 C622.061702,139.403897 621.184736,138.517691 620.097236,138.511964 L521.98541,137.998213 C520.89791,137.992571 520.011704,138.869537 520.005477,139.957037 L520.005477,140.051558 C519.999834,141.139058 520.8768,142.025264 521.9643,142.030991 L620.076126,142.544742 C621.163626,142.550384 622.049832,141.673418 622.056059,140.585918 L622.056059,140.491397 Z M613.801646,149.818126 C613.801646,148.539161 612.76484,147.502355 611.485875,147.502355 L522.761902,147.502355 C521.482937,147.502355 520.446131,148.539161 520.446131,149.818126 L520.446131,151.488002 C520.446131,152.766968 521.482937,153.803774 522.761902,153.803774 L611.485875,153.803774 C612.76484,153.803774 613.801646,152.766968 613.801646,151.488002 L613.801646,149.818126 Z M634.911559,172.76553 C634.910123,172.193102 634.681795,171.644504 634.276333,171.240431 C633.870872,170.836358 633.321494,170.609913 632.749066,170.610914 L522.348372,170.80374 C521.156472,170.805827 520.191914,171.7737 520.193914,172.9656 L520.193914,173.186149 C520.19535,173.758577 520.423678,174.307175 520.829139,174.711248 C521.234601,175.115321 521.783979,175.341765 522.356406,175.340765 L632.757101,175.147938 C633.949001,175.145852 634.913558,174.177979 634.911559,172.986079 L634.911559,172.76553 Z M557.230822,182.082177 C557.231781,181.522311 557.010297,180.984994 556.615092,180.58843 C556.219886,180.191865 555.683333,179.968538 555.123467,179.967578 L522.293077,179.910232 C521.733211,179.909274 521.195894,180.130757 520.79933,180.525963 C520.402766,180.921168 520.179439,181.457722 520.17816,182.017587 L520.17816,182.143616 C520.177202,182.703481 520.398685,183.240798 520.793891,183.637363 C521.189096,184.033927 521.72565,184.257254 522.285515,184.258214 L555.115906,184.31556 C555.675771,184.316519 556.213088,184.095035 556.609653,183.69983 C557.006217,183.304624 557.229544,182.768071 557.230822,182.208205 L557.230822,182.082177 Z"></path>
            <path transform="translate(898.657269, 86.016264) rotate(0.600000) translate(-898.657269, -86.016264)" fill="#FFB25B" id="矩形" d="M888.652668,85.2285869 L908.66187,85.2285869 C908.904876,85.2285869 909.10187,85.4255817 909.10187,85.6685869 L909.10187,86.3639416 C909.10187,86.6069469 908.904876,86.8039416 908.66187,86.8039416 L888.652668,86.8039416 C888.409663,86.8039416 888.212668,86.6069469 888.212668,86.3639416 L888.212668,85.6685869 C888.212668,85.4255817 888.409663,85.2285869 888.652668,85.2285869 Z"></path>
            <path fill="#FFB25B" id="路径" d="M128.781465,85.7957146 C125.336689,103.90179 120.705147,123.677742 114.886837,145.12357 C113.185454,151.393481 109.751181,157.269554 102.819621,158.072985 C91.2250106,159.42779 87.774984,143.264651 85.3331843,134.55294 C80.9852055,119.061953 77.046819,103.423933 73.5180246,87.6388795 C82.4135271,95.5156526 91.0884798,101.150171 99.542883,104.542435 C106.316908,107.267798 123.945126,90.8998636 128.781465,85.7957146 Z"></path>
            <path fill="#2E226A" id="路径" d="M245.343004,107.220537 C236.898053,113.542961 227.787252,117.754409 218.009551,119.854882 C214.428244,120.621554 212.065213,121.677042 210.920455,123.021344 C208.714958,125.620679 208.021802,132.457719 212.32252,134.489926 C212.752157,134.692715 213.049872,135.099278 213.113495,135.570089 C213.177118,136.040899 212.997993,136.5119 212.637591,136.821451 C207.596457,141.153676 199.325845,143.863286 196.99432,149.739359 C193.434019,158.76089 189.689926,167.451596 185.762042,175.811478 C167.739985,177.680899 153.845357,186.340098 144.078158,201.789075 L136.721252,198.575352 C126.402679,185.531416 137.115091,167.036753 149.938477,160.562045 C163.974887,153.457196 173.647564,137.435839 175.853061,122.659013 C177.932529,108.701371 178.940756,94.7594824 192.504559,90.8368494 C197.025827,89.5293051 202.035455,90.3799966 206.950561,91.0101384 C213.078691,91.8135693 218.970517,89.7813618 224.62604,87.6861402 C234.724063,83.9683032 244.491262,87.3868228 245.137157,99.3437644 C245.28419,102.179403 245.352456,104.804994 245.343004,107.220537 Z"></path>
            <path fill="#FFB25B" id="路径" d="M528.385918,98.7923902 C524.951645,101.249943 521.674908,101.428484 518.555706,99.3280108 C510.946743,87.5916189 531.631149,84.5196774 528.385918,98.7923902 Z"></path>
            <path fill="#FFB25B" id="路径" d="M911.307367,90.3799966 C910.792751,89.497798 910.850514,89.9651532 911.480656,91.7820622 L886.464024,91.4827448 C886.537541,90.999636 886.44302,90.4167548 886.18046,89.7341012 L911.307367,90.3799966 Z"></path>
            <path fill="#FDFDFD" id="路径" d="M886.464024,91.4827448 L911.480656,91.7820622 C912.614911,95.4998991 913.024503,99.5012998 912.709432,103.786264 C912.667423,104.395402 912.336598,104.694719 911.716959,104.684217 L887.220195,104.274624 C886.72209,104.266513 886.315456,103.86677 886.290735,103.360919 L886.022925,96.8862112 C890.544193,96.9177182 907.715558,98.3355374 910.551196,96.823197 C910.795515,96.6919934 910.845621,96.4236095 910.674157,96.1645895 C910.502693,95.9055695 910.150865,95.7181617 909.81078,95.7046952 L886.085939,94.7279753 C885.665845,93.59372 885.791873,92.5119765 886.464024,91.4827448 Z"></path>
            <path fill="#2E226A" id="路径" d="M852.782942,200.213721 C843.152275,193.250653 832.250821,189.28076 820.07858,188.30404 C815.552062,177.50761 812.144044,165.797474 809.854529,153.173632 C809.77051,152.701025 809.891287,152.286182 810.216861,151.929102 C814.354792,147.465597 814.39155,142.981087 810.327135,138.475573 C809.957958,138.065717 809.429337,137.835881 808.877809,137.845431 C799.630477,137.955706 794.305779,127.40083 793.990708,119.539811 C793.959201,118.794143 793.638879,118.626105 793.029742,119.035697 L791.328359,120.169952 C783.850675,123.793268 775.753353,125.074557 767.03639,124.013818 L760.561683,121.209687 C759.942043,120.947127 759.611219,121.151924 759.569209,121.824075 L758.671257,138.255024 C756.140188,133.970059 755.011183,129.406782 755.284245,124.565192 C755.314104,124.050885 755.035519,123.568005 754.575335,123.336415 C725.793606,108.748631 754.638349,83.9998103 777.402224,95.7677094 C777.845652,95.9997565 778.361917,96.0451425 778.835796,95.8937377 C787.894086,93.1368671 793.833172,94.6649611 801.268846,99.910892 C805.396275,102.809545 809.649733,101.202683 813.430584,102.557488 C818.765785,104.500425 821.832475,108.192006 822.630655,113.632231 C824.395052,125.589172 821.181329,146.63591 830.680717,161.018898 C840.24312,175.51216 855.728856,178.095742 852.782942,200.213721 Z"></path>
            <path fill="#FFB25B" id="路径" d="M886.085939,94.7279753 L909.81078,95.7046952 C910.150865,95.7181617 910.502693,95.9055695 910.674157,96.1645895 C910.845621,96.4236095 910.795515,96.6919934 910.551196,96.823197 C907.715558,98.3355374 890.544193,96.9177182 886.022925,96.8862112 L886.085939,94.7279753 Z"></path>
            <path fill="#CECDF8" id="路径" d="M528.385918,98.7923902 C528.354411,99.3280108 528.118108,99.910892 527.677009,100.541034 C527.403947,100.929621 527.487966,101.19218 527.929066,101.328711 C529.861501,101.958853 530.675434,103.271649 530.370865,105.267098 C530.255339,105.991761 529.829994,106.333088 529.094828,106.291078 L517.090626,105.629429 C516.449982,105.597922 516.182171,105.261847 516.287195,104.621202 C516.644275,102.594246 517.400446,100.829849 518.555706,99.3280108 C521.674908,101.428484 524.951645,101.249943 528.385918,98.7923902 Z"></path>
            <rect rx="1.84" height="6.6795036" width="98.3021285" y="100.572541" x="597.417958" fill="#CECDF8" id="矩形"></rect>
            <path fill="#FDFDFD" id="路径" d="M899.68125,106.952727 L889.472952,121.603525 C889.030124,122.243751 888.188824,122.460933 887.489972,122.115433 C886.79112,121.769933 886.442738,120.964593 886.66882,120.217213 L890.748989,107.267798 C893.038504,106.301581 896.015924,106.196557 899.68125,106.952727 Z"></path>
            <path fill="#FF9FA5" id="形状" d="M245.341953,107.220537 C245.667527,120.012417 245.756797,132.525984 245.609764,144.761238 C245.467982,157.2538 240.237804,165.288109 226.547973,164.40591 C226.043859,164.374403 225.623765,164.542441 225.287689,164.910024 C225.077642,165.151578 224.956865,165.345872 224.925357,165.492905 C222.667349,163.791522 219.464128,162.704527 215.315694,162.231921 C214.549022,162.147902 214.165685,162.489229 214.165685,163.255901 L214.00815,196.275334 C214.00815,196.884471 214.307467,197.262557 214.906102,197.40959 L216.103372,197.693153 C201.074488,202.277435 189.637414,188.83966 185.762042,175.811478 C189.689926,167.451596 193.434019,158.76089 196.99432,149.739359 C199.325845,143.863286 207.596457,141.153676 212.637591,136.821451 C212.997993,136.5119 213.177118,136.040899 213.113495,135.570089 C213.049872,135.099278 212.752157,134.692715 212.32252,134.489926 C208.021802,132.457719 208.714958,125.620679 210.920455,123.021344 C212.065213,121.677042 214.428244,120.621554 218.009551,119.854882 C227.787252,117.754409 236.898053,113.542961 245.341953,107.220537 Z M219.39287,127.860361 C219.412288,127.543407 219.263577,127.229191 218.979454,126.986842 C218.69533,126.744493 218.299069,126.593865 217.877851,126.568098 C217.000772,126.514461 216.257034,127.005984 216.21664,127.665962 C216.197221,127.982917 216.345932,128.297133 216.630056,128.539482 C216.914179,128.78183 217.31044,128.932458 217.731658,128.958226 C218.608737,129.011863 219.352476,128.52034 219.39287,127.860361 L219.39287,127.860361 Z"></path>
            <path transform="translate(563.957426, 117.586371) rotate(-0.100000) translate(-563.957426, -117.586371)" fill="#CECDF8" id="矩形" d="M521.198729,115.302107 L606.716123,115.302107 C607.50589,115.302107 608.146123,115.94234 608.146123,116.732107 L608.146123,118.440635 C608.146123,119.230402 607.50589,119.870635 606.716123,119.870635 L521.198729,119.870635 C520.408961,119.870635 519.768729,119.230402 519.768729,118.440635 L519.768729,116.732107 C519.768729,115.94234 520.408961,115.302107 521.198729,115.302107 Z"></path>
            <path fill="#FF9FA5" id="路径" d="M694.065964,217.022755 C685.706082,231.169439 673.365804,235.396641 657.045131,229.704359 L666.765069,165.634687 L667.143154,162.877816 C668.960063,151.398732 669.495683,140.28198 668.750015,129.527559 L668.702755,125.983011 L669.269882,122.186406 C669.347853,121.640401 669.784358,121.215729 670.3323,121.15279 C670.880241,121.089851 671.401667,121.40449 671.601407,121.918596 C673.575852,126.970233 674.647093,132.084885 674.815131,137.26255 C674.825633,137.672142 675.03568,137.908446 675.445273,137.97146 C675.571301,137.992464 675.634315,137.934701 675.634315,137.798171 L675.082941,119.319261 C675.065555,118.383466 675.780048,117.602057 676.714096,117.535339 C677.648143,117.468621 678.479364,118.139622 678.611735,119.067204 L679.824758,129.338516 C679.982294,130.661814 680.150332,130.667065 680.328872,129.35427 C680.67545,126.928224 681.463127,117.964456 683.054235,116.672665 C683.365429,116.418464 683.787221,116.347779 684.167022,116.48618 C684.546822,116.624582 684.829637,116.952032 684.913154,117.350068 C686.94011,127.316811 687.906328,137.399081 687.811806,147.596876 C687.811806,148.216516 688.116375,148.468573 688.725512,148.353047 L691.198819,147.896194 C691.442191,147.850869 691.69348,147.90803 691.8933,148.054167 C692.093121,148.200305 692.223746,148.422454 692.254306,148.668118 C693.719386,159.931903 690.552923,164.720981 685.779599,173.007347 C685.524034,173.457238 685.424332,173.977902 685.496035,174.48818 C687.522991,189.01295 690.379634,203.191141 694.065964,217.022755 Z"></path>
            <path fill="#FF9FA5" id="路径" d="M820.07858,188.30404 C816.507777,205.359879 806.819346,212.821809 791.013288,210.689829 L791.407126,178.269031 C791.407126,177.722908 791.139316,177.491856 790.603695,177.575875 L779.954298,179.340272 C771.888483,178.032728 764.830894,177.24505 760.656204,169.321017 C757.064396,162.531238 758.876053,146.698924 758.671257,138.255024 L759.569209,121.824075 C759.611219,121.151924 759.942043,120.947127 760.561683,121.209687 L767.03639,124.013818 C774.80814,127.658138 782.558885,127.31156 790.288625,122.974084 C791.42288,122.343942 791.706444,121.351468 791.328359,120.169952 L793.029742,119.035697 C793.638879,118.626105 793.959201,118.794143 793.990708,119.539811 C794.305779,127.40083 799.630477,137.955706 808.877809,137.845431 C809.429337,137.835881 809.957958,138.065717 810.327135,138.475573 C814.39155,142.981087 814.354792,147.465597 810.216861,151.929102 C809.891287,152.286182 809.77051,152.701025 809.854529,153.173632 C812.144044,165.797474 815.552062,177.50761 820.07858,188.30404 Z"></path>
            <path fill="#FF6780" id="路径" d="M791.328359,120.169952 C791.706444,121.351468 791.42288,122.343942 790.288625,122.974084 C782.558885,127.31156 774.80814,127.658138 767.03639,124.013818 C775.753353,125.074557 783.850675,123.793268 791.328359,120.169952 Z"></path>
            <path transform="translate(351.127016, 127.211788) rotate(-0.100000) translate(-351.127016, -127.211788)" fill="#CECDF8" id="矩形" d="M297.331386,125.274101 L404.922646,125.274101 C405.585388,125.274101 406.122646,125.81136 406.122646,126.474101 L406.122646,127.949474 C406.122646,128.612216 405.585388,129.149474 404.922646,129.149474 L297.331386,129.149474 C296.668645,129.149474 296.131386,128.612216 296.131386,127.949474 L296.131386,126.474101 C296.131386,125.81136 296.668645,125.274101 297.331386,125.274101 Z"></path>
            <path fill="#CECDF8" id="路径" d="M668.702755,125.983011 L668.750015,129.527559 C621.279329,129.926649 573.97143,130.19971 526.826317,130.346743 C524.673333,130.357246 522.893182,130.210213 521.485865,129.905644 C520.653654,129.706064 520.099212,128.919379 520.19109,128.068517 C520.282967,127.217655 520.992564,126.567464 521.848197,126.550139 L668.702755,125.983011 Z"></path>
            <path transform="translate(692.254306, 127.589873) rotate(-0.400000) translate(-692.254306, -127.589873)" fill="#B9CCFD" id="矩形" d="M688.777835,126.203561 L695.730778,126.203561 C696.194697,126.203561 696.570778,126.579641 696.570778,127.043561 L696.570778,128.136185 C696.570778,128.600104 696.194697,128.976185 695.730778,128.976185 L688.777835,128.976185 C688.313915,128.976185 687.937835,128.600104 687.937835,128.136185 L687.937835,127.043561 C687.937835,126.579641 688.313915,126.203561 688.777835,126.203561 Z"></path>
            <ellipse ry="1.19726951" rx="1.59110817" cy="127.763162" cx="217.804755" transform="translate(217.804755, 127.763162) rotate(3.500000) translate(-217.804755, -127.763162)" fill="#FFB0BF" id="椭圆形"></ellipse>
            <rect rx="1.25" height="5.48223409" width="55.893582" y="132.536486" x="308.954773" fill="#CECDF8" id="矩形"></rect>
            <path fill="#CECDF8" id="路径" d="M1008.55401,155.646939 L952.376862,155.725706 C963.388591,129.889891 997.227208,129.779616 1008.55401,155.646939 Z"></path>
            <rect rx="1.25" height="4.03290783" width="102.051472" y="138.255024" x="520.005032" transform="translate(571.030768, 140.271477) rotate(0.300000) translate(-571.030768, -140.271477)" fill="#CECDF8" id="矩形"></rect>
            <rect rx="1.42" height="7.05758871" width="29.7111882" y="141.957107" x="296.131386" fill="#CECDF8" id="矩形"></rect>
            <path transform="translate(371.401830, 145.643437) rotate(-0.100000) translate(-371.401830, -145.643437)" fill="#CECDF8" id="矩形" d="M343.593931,142.240671 L399.209729,142.240671 C400.165182,142.240671 400.939729,143.015218 400.939729,143.970671 L400.939729,147.316203 C400.939729,148.271655 400.165182,149.046203 399.209729,149.046203 L343.593931,149.046203 C342.638478,149.046203 341.863931,148.271655 341.863931,147.316203 L341.863931,143.970671 C341.863931,143.015218 342.638478,142.240671 343.593931,142.240671 Z"></path>
            <rect rx="1.47" height="6.30141849" width="93.355515" y="147.502355" x="520.446131" fill="#CECDF8" id="矩形"></rect>
            <path fill="#CECDF8" id="路径" d="M895.569574,173.401185 C887.015398,173.322417 881.548918,162.641513 881.375629,155.347621 C881.36125,154.90238 881.675471,154.513909 882.113884,154.434915 C882.552297,154.355922 882.982345,154.610291 883.124272,155.03255 C886.857863,166.012772 887.661294,170.990893 901.051808,171.101167 C904.438821,171.132675 926.320496,170.234722 927.297216,172.440219 C927.392037,172.663199 927.369139,172.918815 927.236198,173.121393 C927.103256,173.32397 926.877864,173.4467 926.635567,173.448446 C916.353753,173.521962 905.998422,173.506209 895.569574,173.401185 Z"></path>
            <path fill="#FFB25B" id="路径" d="M1008.55401,155.646939 C1011.25312,167.934705 1008.55401,177.638889 1000.45668,184.759492 C978.448981,204.1206 944.941188,184.428668 952.376862,155.725706 L1008.55401,155.646939 Z"></path>
            <rect rx="1.25" height="4.1904433" width="116.072129" y="160.924377" x="295.989604" fill="#CECDF8" id="矩形"></rect>
            <path fill="#CECDF8" id="路径" d="M667.143154,162.877816 L666.765069,165.634687 L521.312576,165.918268 C520.935787,165.920224 520.57788,165.753506 520.336963,165.463795 C520.096045,165.174083 519.997392,164.791774 520.068046,164.421664 L520.383117,162.751788 C520.509145,162.090139 520.908235,161.754063 521.580386,161.743561 C561.793939,161.617533 602.007491,161.628035 642.221044,161.775068 C646.684548,161.78557 651.142802,161.91685 655.595804,162.168907 C658.447196,162.326442 663.189014,161.586026 667.143154,162.877816 Z"></path>
            <path fill="#FF6780" id="路径" d="M224.925357,165.492905 L224.610287,182.900574 C224.13768,189.895148 221.302042,194.826008 216.103372,197.693153 L214.906102,197.40959 C214.307467,197.262557 214.00815,196.884471 214.00815,196.275334 L214.165685,163.255901 C214.165685,162.489229 214.549022,162.147902 215.315694,162.231921 C219.464128,162.704527 222.667349,163.791522 224.925357,165.492905 Z"></path>
            <path transform="translate(577.552736, 172.975839) rotate(-0.100000) translate(-577.552736, -172.975839)" fill="#CECDF8" id="矩形" d="M521.564074,170.707329 L633.541398,170.707329 C634.298028,170.707329 634.911398,171.320699 634.911398,172.077329 L634.911398,173.87435 C634.911398,174.63098 634.298028,175.24435 633.541398,175.24435 L521.564074,175.24435 C520.807444,175.24435 520.194074,174.63098 520.194074,173.87435 L520.194074,172.077329 C520.194074,171.320699 520.807444,170.707329 521.564074,170.707329 Z"></path>
            <path fill="#00BE8B" id="形状" d="M185.762042,175.811478 C189.637414,188.83966 201.074488,202.277435 216.103372,197.693153 C221.302042,194.826008 224.13768,189.895148 224.610287,182.900574 C230.029506,185.641691 234.366983,189.212494 237.622716,193.612985 C240.447852,205.890249 242.138732,218.088745 242.695358,230.208473 C243.798106,254.510944 244.564778,278.66113 244.995375,302.659032 C245.012771,303.510217 245.587981,304.251599 246.413194,304.486443 L265.175668,309.826896 C262.865148,316.611423 261.45258,323.894812 260.937964,331.677064 C252.74612,331.803093 244.507015,331.850353 236.22065,331.818846 C230.75417,331.787339 229.115801,333.977082 229.446625,339.270273 C208.609935,335.384399 192.362777,331.041671 180.705153,326.242091 C151.576846,314.253642 139.840454,275.468411 134.484249,246.198322 C134.011642,230.612814 137.209612,215.809732 144.078158,201.789075 C153.845357,186.340098 167.739985,177.680899 185.762042,175.811478 Z M202.366279,286.165069 C199.530641,262.424475 195.718283,234.635219 185.273682,211.256957 C185.23888,211.156902 185.129557,211.104003 185.029502,211.138805 C184.929447,211.173607 184.876548,211.28293 184.91135,211.382985 L202.098469,286.936993 C202.120081,287.0253 202.182723,287.09789 202.266916,287.132191 C202.35111,287.166492 202.446645,287.158344 202.523815,287.110282 C202.817881,286.931742 202.833634,286.737448 202.571075,286.527401 C202.455549,286.432879 202.387284,286.312102 202.366279,286.165069 Z"></path>
            <path fill="#FF6780" id="路径" d="M791.013288,210.689829 C783.11551,207.75967 779.234886,202.104146 779.371417,193.72326 L779.954298,179.340272 L790.603695,177.575875 C791.139316,177.491856 791.407126,177.722908 791.407126,178.269031 L791.013288,210.689829 Z"></path>
            <path transform="translate(538.704491, 182.112896) rotate(0.100000) translate(-538.704491, -182.112896)" fill="#CECDF8" id="矩形" d="M521.518321,179.938907 L555.890662,179.938907 C556.630723,179.938907 557.230662,180.538845 557.230662,181.278907 L557.230662,182.946886 C557.230662,183.686947 556.630723,184.286886 555.890662,184.286886 L521.518321,184.286886 C520.778259,184.286886 520.178321,183.686947 520.178321,182.946886 L520.178321,181.278907 C520.178321,180.538845 520.778259,179.938907 521.518321,179.938907 Z"></path>
            <path fill="#5459FF" id="形状" d="M852.782942,200.213721 C871.482402,214.722737 879.359175,236.068792 879.264654,259.33678 C879.254151,261.668305 879.359175,265.969023 879.579725,272.238934 C873.015747,296.394372 863.358823,316.915991 850.608953,333.803793 C840.568693,347.110288 828.202159,351.78384 813.509352,347.824449 C822.593897,344.390176 827.519505,338.687392 828.286178,330.716098 C830.050575,312.252942 813.729901,302.485743 796.558536,302.848075 C789.049346,303.00561 774.004709,302.506748 751.424626,301.351488 L750.825991,286.621922 L755.66233,203.206895 C762.215805,198.669873 770.118834,195.508662 779.371417,193.72326 C779.234886,202.104146 783.11551,207.75967 791.013288,210.689829 C806.819346,212.821809 816.507777,205.359879 820.07858,188.30404 C832.250821,189.28076 843.152275,193.250653 852.782942,200.213721 Z M835.107464,221.039909 C833.994213,222.216174 833.253796,223.192894 832.886214,223.970069 C825.482047,239.786629 819.54296,256.165066 815.068953,273.105379 C814.732877,274.355161 814.83265,274.386668 815.36827,273.199901 C823.355318,255.256611 828.821799,237.959218 835.674591,220.614563 C835.958155,219.8899 835.853131,219.811132 835.35952,220.37826 C835.212487,220.546298 835.128468,220.766848 835.107464,221.039909 Z"></path>
            <path fill="#009D60" id="路径" d="M237.622716,193.612985 C254.352982,214.754244 263.899631,245.174342 273.336005,270.253987 C274.816838,274.192374 276.518221,277.668657 278.440154,280.682835 C279.044085,281.628252 280.17187,282.094488 281.260039,281.848597 L346.164649,267.150539 C345.755057,271.361987 346.752782,275.657454 349.157823,280.03694 C349.399377,280.488541 349.772211,280.672333 350.276325,280.588314 C351.137519,280.441281 351.772912,279.627347 352.182504,278.146514 C352.098485,275.268866 353.7211,274.055843 357.05035,274.507445 L359.996263,283.124635 L360.673665,290.008934 L350.213311,290.040441 C350.948476,287.929466 351.148021,286.070548 350.811945,284.463686 C350.65441,283.707516 350.313083,283.618246 349.787965,284.195876 C348.506676,285.603193 348.401653,287.651154 349.472894,290.339759 L339.154321,291.773332 C338.576691,291.85735 338.293127,292.188175 338.30363,292.765805 L338.445412,299.177498 L292.697113,316.585167 L265.175668,309.826896 L246.413194,304.486443 C245.587981,304.251599 245.012771,303.510217 244.995375,302.659032 C244.564778,278.66113 243.798106,254.510944 242.695358,230.208473 C242.138732,218.088745 240.447852,205.890249 237.622716,193.612985 Z"></path>
            <path fill="#F3436D" id="路径" d="M136.721252,198.575352 L144.078158,201.789075 C137.209612,215.809732 134.011642,230.612814 134.484249,246.198322 C131.64861,258.706638 131.412307,272.695787 130.593123,282.982853 C128.734204,306.350613 128.566166,330.663586 130.089009,355.921772 C130.320061,359.881163 131.197009,363.583246 132.719851,367.028022 C129.033522,383.380203 128.655436,399.259777 136.500702,414.493457 C137.571944,416.572925 138.685194,418.263805 139.840454,419.566099 C140.187032,419.954686 140.612378,420.169985 141.116491,420.211994 L165.991341,422.448998 C166.579473,422.501509 166.847284,422.821831 166.794772,423.409964 L165.770791,435.839512 L163.691323,450.317021 L163.013921,461.801356 L161.832405,567.14532 C158.933752,579.22829 152.238495,582.347492 140.029497,582.315985 C129.684668,582.284478 119.313584,582.273975 108.916243,582.284478 C108.391125,582.284478 107.902765,582.431511 107.451163,582.725577 C98.0462961,588.822199 69.4693632,585.576969 62.049443,585.072855 C51.0219606,584.316685 45.0671201,578.487873 44.1849215,567.586419 L44.2636893,547.705444 C44.2636893,547.138316 43.9853766,546.796989 43.4287513,546.681463 C23.7053114,542.821844 18.9319869,529.478591 17.1360827,510.275018 C15.4977139,492.746572 15.7760265,476.305121 17.9710206,460.950665 C19.3573327,451.24648 24.9813487,444.425195 34.8430686,440.486808 C56.4044222,431.885372 78.6274248,425.652219 101.512076,421.787349 C102.027313,421.697037 102.470459,421.370508 102.709346,420.90515 C103.255469,419.812904 103.57054,418.515862 103.654559,417.014024 C107.582443,396.4714 112.781113,376.301609 119.250569,356.504653 C120.027744,354.152123 120.479346,351.731329 120.605374,349.242268 C121.991686,322.660785 123.65106,295.895509 125.583495,268.946443 C126.633731,252.268689 128.05155,235.412394 129.836952,218.37756 C130.729653,209.870645 133.02442,203.269909 136.721252,198.575352 Z"></path>
            <path fill="#3D34FF" id="路径" d="M755.66233,203.206895 L750.825991,286.621922 C742.088024,291.841597 733.145261,296.12131 723.997702,299.461062 L680.328872,300.989156 C672.94571,296.546656 666.744064,290.197977 661.723934,281.943119 C656.808827,273.856298 654.472051,264.734995 654.713606,254.579209 L657.045131,229.704359 C673.365804,235.396641 685.706082,231.169439 694.065964,217.022755 L702.856443,239.818136 C703.024839,240.254203 703.391214,240.583737 703.842623,240.70515 C704.294033,240.826564 704.776282,240.725281 705.140707,240.432524 L717.270938,230.822861 C729.401168,220.530544 742.198299,211.325222 755.66233,203.206895 Z"></path>
            <path transform="translate(982.088050, 226.805707) rotate(0.200000) translate(-982.088050, -226.805707)" fill="#9EA1FE" id="矩形" d="M981.786126,208.153508 L982.389974,208.153508 C982.649547,208.153508 982.859974,208.363934 982.859974,208.623508 L982.859974,244.987906 C982.859974,245.247479 982.649547,245.457906 982.389974,245.457906 L981.786126,245.457906 C981.526552,245.457906 981.316126,245.247479 981.316126,244.987906 L981.316126,208.623508 C981.316126,208.363934 981.526552,208.153508 981.786126,208.153508 Z"></path>
            <path fill="#009D60" id="路径" d="M202.571075,286.527401 C202.833634,286.737448 202.817881,286.931742 202.523815,287.110282 C202.446645,287.158344 202.35111,287.166492 202.266916,287.132191 C202.182723,287.09789 202.120081,287.0253 202.098469,286.936993 L184.91135,211.382985 C184.876548,211.28293 184.929447,211.173607 185.029502,211.138805 C185.129557,211.104003 185.23888,211.156902 185.273682,211.256957 C195.718283,234.635219 199.530641,262.424475 202.366279,286.165069 C202.387284,286.312102 202.455549,286.432879 202.571075,286.527401 Z"></path>
            <path fill="#3127BF" id="路径" d="M835.107464,221.039909 C835.128468,220.766848 835.212487,220.546298 835.35952,220.37826 C835.853131,219.811132 835.958155,219.8899 835.674591,220.614563 C828.821799,237.959218 823.355318,255.256611 815.36827,273.199901 C814.83265,274.386668 814.732877,274.355161 815.068953,273.105379 C819.54296,256.165066 825.482047,239.786629 832.886214,223.970069 C833.253796,223.192894 833.994213,222.216174 835.107464,221.039909 Z"></path>
            <path fill="#5459FF" id="形状" d="M500.171317,231.405742 C517.132635,231.321723 534.188475,231.342728 551.338835,231.468757 C566.036894,231.594785 565.784837,245.646948 567.139642,256.044289 C570.405877,278.109756 573.609099,299.71837 576.749305,320.870131 C577.489722,325.97428 577.584243,330.999662 570.479394,330.999662 C523.880404,331.020666 477.286666,331.025918 430.698178,331.015415 C423.467301,331.015415 420.521387,328.90444 419.434393,321.846851 C415.475001,296.294599 411.610131,270.721343 407.839783,245.127081 C406.516485,236.053039 408.643214,231.516017 418.426166,231.468757 C445.564275,231.342728 472.812659,231.321723 500.171317,231.405742 Z M475.816335,271.703314 C466.931335,287.488367 482.732141,304.265894 498.170617,295.727472 C516.744048,285.471913 500.092549,262.849821 497.052115,271.293721 C496.875332,271.765816 496.940192,272.290591 497.225404,272.695787 C498.62747,274.680734 500.40762,276.586913 500.84872,278.965698 C504.58231,299.145991 471.373835,292.671284 479.534172,277.799936 C480.542399,275.972525 481.377337,274.3079 482.038985,272.806062 C482.574606,271.59829 482.264786,270.674082 481.109526,270.033438 C478.90403,268.804661 477.139633,269.361286 475.816335,271.703314 Z"></path>
            <path fill="#443A82" id="路径" d="M374.536786,259.258012 L359.602424,269.214253 C359.405876,269.348351 359.148569,269.353318 358.946992,269.226906 C358.745415,269.100493 358.637839,268.866701 358.672965,268.631372 C358.862007,267.339581 370.803196,258.832666 374.205962,255.871 L391.519109,243.520219 C391.918199,243.236656 392.301535,243.252409 392.669118,243.56748 C393.698349,244.449679 393.756112,245.216351 392.842407,245.867498 C383.421786,252.599513 377.319912,257.063018 374.536786,259.258012 Z"></path>
            <path fill="#009D60" id="路径" d="M134.484249,246.198322 C139.840454,275.468411 151.576846,314.253642 180.705153,326.242091 C192.362777,331.041671 208.609935,335.384399 229.446625,339.270273 C230.580881,346.249094 227.209622,355.102587 237.370659,356.614928 C237.318147,357.42361 237.37591,357.612652 237.543948,357.182056 C236.57773,358.22179 235.931835,359.293031 235.606262,360.395779 C219.679427,356.299857 208.226598,354.125868 192.473052,355.638208 C172.308513,357.570643 152.390779,361.367248 132.719851,367.028022 C131.197009,363.583246 130.320061,359.881163 130.089009,355.921772 C128.566166,330.663586 128.734204,306.350613 130.593123,282.982853 C131.412307,272.695787 131.64861,258.706638 134.484249,246.198322 Z"></path>
            <path fill="#FF9FA5" id="路径" d="M359.996263,283.124635 L357.05035,274.507445 C356.462217,272.238934 355.369971,270.611068 353.773612,269.623846 C353.195982,269.266765 352.802143,269.408547 352.592096,270.049191 C352.014466,271.750574 350.811945,272.701038 348.984534,272.900583 C348.259871,272.9741 348.07608,273.33118 348.43316,273.971824 C349.262847,275.484165 350.512628,276.875728 352.182504,278.146514 C351.772912,279.627347 351.137519,280.441281 350.276325,280.588314 C349.772211,280.672333 349.399377,280.488541 349.157823,280.03694 C346.752782,275.657454 345.755057,271.361987 346.164649,267.150539 C351.67839,265.596189 356.971582,262.80256 362.044224,258.769652 C366.371198,255.324877 370.42511,254.358659 374.205962,255.871 C370.803196,258.832666 358.862007,267.339581 358.672965,268.631372 C358.637839,268.866701 358.745415,269.100493 358.946992,269.226906 C359.148569,269.353318 359.405876,269.348351 359.602424,269.214253 L374.536786,259.258012 C382.55009,256.684933 390.085536,253.229655 397.143125,248.892179 C397.525912,248.653558 398.018896,248.688972 398.363647,248.979855 C398.708397,249.270738 398.826266,249.750732 398.655465,250.168216 C395.425988,258.202525 388.90402,269.95467 380.475873,273.609493 C373.57582,276.602667 366.749283,279.774381 359.996263,283.124635 Z"></path>
            <path fill="#CECDF8" id="路径" d="M125.583495,268.946443 C123.65106,295.895509 121.991686,322.660785 120.605374,349.242268 C120.479346,351.731329 120.027744,354.152123 119.250569,356.504653 C112.781113,376.301609 107.582443,396.4714 103.654559,417.014024 C100.519603,413.500983 95.8880603,413.311941 94.5017482,408.286559 C84.4614881,372.30546 74.9568485,336.177327 65.9878295,299.902161 C62.6165706,286.21233 71.9741771,272.002631 85.0968811,268.97795 C93.8873599,266.945743 113.406004,268.237533 125.583495,268.946443 Z"></path>
            <path fill="#F3436D" id="路径" d="M357.05035,274.507445 C353.7211,274.055843 352.098485,275.268866 352.182504,278.146514 C350.512628,276.875728 349.262847,275.484165 348.43316,273.971824 C348.07608,273.33118 348.259871,272.9741 348.984534,272.900583 C350.811945,272.701038 352.014466,271.750574 352.592096,270.049191 C352.802143,269.408547 353.195982,269.266765 353.773612,269.623846 C355.369971,270.611068 356.462217,272.238934 357.05035,274.507445 Z"></path>
            <path fill="#FDFDFD" id="路径" d="M498.170617,295.727472 C482.732141,304.265894 466.931335,287.488367 475.816335,271.703314 C477.139633,269.361286 478.90403,268.804661 481.109526,270.033438 C482.264786,270.674082 482.574606,271.59829 482.038985,272.806062 C481.377337,274.3079 480.542399,275.972525 479.534172,277.799936 C471.373835,292.671284 504.58231,299.145991 500.84872,278.965698 C500.40762,276.586913 498.62747,274.680734 497.225404,272.695787 C496.940192,272.290591 496.875332,271.765816 497.052115,271.293721 C500.092549,262.849821 516.744048,285.471913 498.170617,295.727472 Z"></path>
            <path fill="#00B381" id="路径" d="M629.744235,290.686337 L605.499527,290.465787 C603.850656,287.703665 603.55659,285.183098 604.617329,282.904085 C604.869385,282.368464 605.278978,281.995631 605.846105,281.785583 C608.230142,280.924389 610.35162,281.375991 612.210538,283.140388 C612.492751,283.408642 612.908944,283.480089 613.264465,283.321313 C613.619985,283.162537 613.844559,282.804922 613.833153,282.415725 C613.770139,278.35131 614.710101,274.512696 616.653038,270.899883 C617.010118,270.238234 617.561492,269.912661 618.30716,269.923163 L622.74966,269.970424 C623.342363,269.981321 623.876796,270.315342 624.135972,270.836869 C626.688047,275.941018 624.403783,282.368464 624.025698,287.330832 C623.941679,288.517599 624.177982,288.585864 624.734607,287.535628 L628.216141,280.887631 C628.647213,280.071892 629.550818,279.626452 630.453144,279.784883 C635.447019,280.619821 631.540139,287.472613 629.744235,290.686337 Z"></path>
            <path fill="#3127BF" id="路径" d="M879.579725,272.238934 L880.524937,277.721168 C882.793448,294.924041 884.248025,311.586042 884.88867,327.707171 C879.280407,335.615451 873.708903,343.103636 868.174157,350.171727 C863.290558,356.394378 857.902845,360.44304 851.790469,365.436914 C836.120942,363.000365 820.614201,361.50903 805.270247,360.962907 C788.928568,360.374774 772.571136,362.349219 756.197951,366.88624 C755.646576,367.043775 754.622596,366.791719 754.19725,366.492401 L753.630122,357.323837 C753.608448,356.938388 753.744879,356.561049 754.007249,356.280791 C754.269619,356.000532 754.634707,355.842156 755.016435,355.843004 C761.769455,355.811497 768.68001,355.806246 775.748101,355.827251 C781.025539,355.843004 780.174848,346.264848 780.064573,341.712073 L813.509352,347.824449 C828.202159,351.78384 840.568693,347.110288 850.608953,333.803793 C863.358823,316.915991 873.015747,296.394372 879.579725,272.238934 Z"></path>
            <path fill="#CECDF8" id="路径" d="M914.836161,311.843349 C908.70278,310.950649 903.462101,311.727823 899.114122,314.174874 C885.251001,322.004387 896.703829,334.985309 904.706631,343.051125 C901.272358,360.033447 895.821631,376.548415 888.35445,392.596027 L883.927703,368.146524 C886.416764,355.659213 886.737086,342.179428 884.88867,327.707171 C884.248025,311.586042 882.793448,294.924041 880.524937,277.721168 C882.887969,276.544904 885.240499,275.473662 887.582526,274.507445 C903.225797,268.048491 920.507438,281.375991 919.499211,297.932968 C919.331173,300.590066 917.776823,305.22686 914.836161,311.843349 Z"></path>
            <path fill="#CECDF8" id="路径" d="M350.213311,290.040441 C349.247093,289.98793 349.000288,290.087702 349.472894,290.339759 C348.401653,287.651154 348.506676,285.603193 349.787965,284.195876 C350.313083,283.618246 350.65441,283.707516 350.811945,284.463686 C351.148021,286.070548 350.948476,287.929466 350.213311,290.040441 Z"></path>
            <path fill="#FDFDFD" id="路径" d="M750.825991,286.621922 L751.424626,301.351488 L723.997702,299.461062 C733.145261,296.12131 742.088024,291.841597 750.825991,286.621922 Z"></path>
            <path fill="#7579C8" id="路径" d="M365.7148,290.16647 L363.383275,290.008934 L364.501777,288.48084 C364.963881,287.840196 365.347217,287.887457 365.651786,288.622622 C365.809321,288.979703 365.830326,289.494319 365.7148,290.16647 Z"></path>
            <path fill="#5459FF" id="路径" d="M349.472894,290.339759 C349.000288,290.087702 349.247093,289.98793 350.213311,290.040441 L360.673665,290.008934 C361.545362,290.271493 362.448565,290.271493 363.383275,290.008934 L365.7148,290.16647 L380.50738,290.92264 C381.137522,290.954147 381.410583,291.284972 381.326564,291.915113 L376.001866,330.274999 C375.946767,330.696149 375.583692,331.012159 375.151174,331.015415 L344.069428,331.015415 C343.505685,331.014258 343.029222,330.604903 342.950926,330.054449 L338.445412,299.177498 L338.303348,292.765805 C338.293127,292.188175 338.576691,291.85735 339.154321,291.773332 L349.472894,290.339759 Z"></path>
            <path fill="#5459FF" id="路径" d="M605.499527,290.465787 L629.744235,290.686337 L641.417613,291.032915 C641.662469,291.039215 641.892963,291.150718 642.05206,291.339835 C642.211158,291.528951 642.283996,291.778011 642.252551,292.025388 L636.597028,330.322259 C636.534013,330.784363 636.271454,331.015415 635.80935,331.015415 L605.058428,331.015415 C604.438788,331.015415 604.081708,330.705595 603.987187,330.085956 L598.58372,291.993881 C598.489199,291.342735 598.767512,290.990905 599.418658,290.938394 L605.499527,290.465787 Z"></path>
            <path fill="#FF9FA5" id="路径" d="M723.997702,299.461062 L751.424626,301.351488 C774.004709,302.506748 789.049346,303.00561 796.558536,302.848075 C813.729901,302.485743 830.050575,312.252942 828.286178,330.716098 C827.519505,338.687392 822.593897,344.390176 813.509352,347.824449 L780.064573,341.712073 L779.371417,335.804493 C779.148959,333.878632 777.521279,332.419798 775.574812,332.401727 C760.839995,332.307206 745.916136,331.172951 730.803234,328.998961 C728.377188,328.641881 725.798857,328.746905 723.068243,329.314032 C709.583207,332.070903 696.822835,331.803093 689.371407,318.428332 C689.083185,317.903771 689.053616,317.275419 689.291429,316.728757 C689.529242,316.182095 690.00728,315.779552 690.58443,315.639954 C695.573053,314.390173 700.677202,314.048846 705.896877,314.615974 C706.062909,314.652557 706.235846,314.597784 706.350544,314.472288 C706.465242,314.346792 706.504276,314.169638 706.452942,314.007558 C706.401608,313.845479 706.267705,313.723098 706.101673,313.686514 L675.555547,303.541231 C674.58933,303.215657 674.578827,302.869079 675.52404,302.501497 C676.185689,302.24944 676.889348,302.170672 677.635015,302.265193 C678.191641,302.33871 678.653745,302.165421 679.021328,301.745326 C679.598958,301.073175 680.034806,300.821118 680.328872,300.989156 L723.997702,299.461062 Z"></path>
            <path fill="#00B381" id="路径" d="M975.991428,455.342402 L929.09312,455.184867 C928.91458,455.184867 928.757045,455.116601 928.620514,454.980071 C928.494486,454.84354 928.415718,454.728014 928.384211,454.633492 C920.806755,434.610735 909.653244,419.124999 897.712056,401.701577 C889.409937,389.5871 895.900398,379.426063 910.062837,380.245247 C916.059686,380.591825 922.240328,382.198687 928.60476,385.065832 C929.255907,385.359899 929.465954,385.165605 929.234902,384.482951 C923.994223,369.023471 915.818132,355.212862 904.706631,343.051125 C896.703829,334.985309 885.251001,322.004387 899.114122,314.174874 C903.462101,311.727823 908.70278,310.950649 914.836161,311.843349 C932.558901,316.443385 943.35008,327.817445 952.518644,343.20866 C952.875724,343.78629 953.2118,343.775788 953.526871,343.177153 C961.104326,328.809919 969.674255,317.04202 984.403821,309.748128 C992.910736,305.541931 1002.03204,308.755654 1001.77998,318.995459 C1001.55943,328.746905 992.21758,342.168926 986.278493,352.077907 C978.884829,364.39718 973.654651,377.462121 970.587961,391.27273 C970.523382,391.572896 970.659374,391.880517 970.924844,392.034777 C971.190314,392.189037 971.524914,392.154867 971.753724,391.950132 C978.191673,386.07931 985.574835,381.904621 993.90321,379.426063 C1010.3184,374.558217 1020.14862,389.256276 1009.18415,402.536515 C995.951171,418.563123 984.88693,436.165085 975.991428,455.342402 Z"></path>
            <path fill="#FF9FA5" id="路径" d="M265.175668,309.826896 L292.697113,316.585167 C304.622548,320.003686 315.271945,320.77561 324.456263,331.188704 C324.802841,331.587794 324.739826,331.908116 324.26722,332.149671 C323.742102,332.422732 323.185476,332.396476 322.597344,332.070903 C322.198254,331.839851 321.767657,331.724325 321.305553,331.724325 L260.937964,331.677064 C261.45258,323.894812 262.865148,316.611423 265.175668,309.826896 Z"></path>
            <path fill="#3D34FF" id="路径" d="M884.88867,327.707171 C886.737086,342.179428 886.416764,355.659213 883.927703,368.146524 C873.750912,369.910921 860.880265,367.390353 851.790469,365.436914 C857.902845,360.44304 863.290558,356.394378 868.174157,350.171727 C873.708903,343.103636 879.280407,335.615451 884.88867,327.707171 Z"></path>
            <path fill="#FDFDFD" id="路径" d="M904.706631,343.051125 C915.818132,355.212862 923.994223,369.023471 929.234902,384.482951 C929.465954,385.165605 929.255907,385.359899 928.60476,385.065832 C922.240328,382.198687 916.059686,380.591825 910.062837,380.245247 C895.900398,379.426063 889.409937,389.5871 897.712056,401.701577 C909.653244,419.124999 920.806755,434.610735 928.384211,454.633492 L913.245053,456.082819 C911.690703,456.229852 911.044808,457.070041 911.307367,458.603386 L929.644494,565.695993 C929.694267,565.969369 929.627155,566.251091 929.459477,566.472666 C929.291798,566.694241 929.038911,566.835375 928.762296,566.861756 L919.073865,567.964504 C911.449149,533.191176 903.950461,498.585886 896.577801,464.148634 C895.317517,458.26731 892.04078,453.73554 886.747588,450.553324 L905.273758,450.616338 C906.745871,450.615795 908.038736,449.638106 908.440221,448.221799 C909.54297,444.262408 909.50096,440.339775 908.314193,436.4539 C908.183268,436.003672 907.774759,435.690907 907.305966,435.681976 L868.646763,434.784024 C877.269204,428.451099 882.793448,420.248752 885.219494,410.176985 C886.448271,405.093841 887.493256,399.233522 888.35445,392.596027 C895.821631,376.548415 901.272358,360.033447 904.706631,343.051125 Z"></path>
            <path fill="#443A82" id="路径" d="M235.606262,360.395779 L238.993274,361.356745 C237.874772,363.310185 238.66245,365.232118 240.678904,366.271852 C247.116853,369.590599 251.806158,371.754086 254.74682,372.762313 C275.184421,379.714878 295.585263,386.777718 315.949348,393.950832 C343.927646,403.781045 353.442788,419.991444 350.796192,449.040984 C350.544135,451.766347 347.929046,471.631569 348.511928,472.498014 C348.79023,472.905852 349.290352,473.101021 349.771335,472.989489 C350.252319,472.877957 350.615507,472.4826 350.685917,471.9939 C352.907167,457.201321 356.60925,439.510088 353.883887,425.914778 C348.637956,399.748137 321.053497,386.751462 298.006058,379.835655 C282.000455,375.025572 265.753298,370.583072 249.264586,366.508155 C248.088322,366.214089 247.715488,365.499928 248.146085,364.365673 C248.52417,363.367948 249.54815,362.212688 251.218026,360.899892 C272.753124,361.624556 287.892282,365.043075 314.720571,369.706125 L326.141892,371.517783 C338.944274,374.006843 351.778163,376.39088 364.643559,378.669893 C375.208937,380.539313 382.581597,382.513758 386.761538,384.593226 C406.579499,394.454946 414.850111,414.714006 411.305563,436.075815 C405.088163,473.516743 398.623958,510.931416 391.912947,548.319832 C391.82084,548.810578 391.388209,549.163339 390.888967,549.15477 L387.675244,549.060249 L374.284729,547.169823 L362.894915,545.767757 L351.14277,544.066374 C350.450319,543.966854 349.930981,543.387592 349.913993,542.695816 C349.420382,522.363239 348.574942,501.894131 347.377672,481.288493 C347.220137,478.673404 348.023568,475.365159 347.913293,472.450753 C347.917646,472.271662 347.776586,472.1159 347.598227,472.102849 C347.419868,472.089799 347.27175,472.224401 347.267397,472.403493 L332.12824,567.649433 L331.655633,568.626153 L311.821918,567.996011 L305.063647,567.523405 C305.168671,566.588694 304.717069,566.179102 303.708842,566.294628 C303.28083,566.348743 302.943773,566.685801 302.889658,567.113813 L301.267042,579.874185 L294.445757,585.324912 L294.319729,566.593946 L288.884755,438.706657 C288.86375,438.13953 288.574935,437.798203 288.01831,437.682677 L282.614844,436.579929 C280.367338,436.044308 278.802486,435.776498 277.920287,435.776498 C240.510866,435.744991 203.127701,435.765995 165.770791,435.839512 L166.794772,423.409964 C166.847284,422.821831 166.579473,422.501509 165.991341,422.448998 L141.116491,420.211994 C140.612378,420.169985 140.187032,419.954686 139.840454,419.566099 C138.685194,418.263805 137.571944,416.572925 136.500702,414.493457 C128.655436,399.259777 129.033522,383.380203 132.719851,367.028022 C152.390779,361.367248 172.308513,357.570643 192.473052,355.638208 C208.226598,354.125868 219.679427,356.299857 235.606262,360.395779 Z"></path>
            <path fill="#554998" id="路径" d="M691.797454,390.532313 L679.903526,395.352898 L679.69873,368.099263 C679.69873,367.532135 679.415166,367.248572 678.848039,367.248572 L670.971265,367.248572 C670.67545,367.248572 670.435645,367.481324 670.435645,367.768439 L670.59318,400.441293 L658.541717,407.262579 L658.368428,368.036249 C658.368428,367.511131 658.105869,367.248572 657.580751,367.248572 L327.764507,367.248572 C327.165872,367.248572 326.814043,367.547889 326.70902,368.146524 L326.141892,371.517783 L314.720571,369.706125 L314.657557,356.126568 C314.657557,355.664464 314.888609,355.433412 315.350713,355.433412 L690.994023,355.433412 C691.455146,355.433412 691.828961,355.807226 691.828961,356.26835 L691.797454,390.532313 Z"></path>
            <path fill="#CECDF8" id="路径" d="M237.543948,357.182056 C237.37591,357.612652 237.318147,357.42361 237.370659,356.614928 C240.080269,356.473146 261.772902,355.527933 262.056466,356.835477 C262.077471,356.929999 262.035461,356.977259 261.930438,356.977259 L237.543948,357.182056 Z"></path>
            <path fill="#2E226A" id="路径" d="M251.218026,360.899892 C249.54815,362.212688 248.52417,363.367948 248.146085,364.365673 C247.715488,365.499928 248.088322,366.214089 249.264586,366.508155 C265.753298,370.583072 282.000455,375.025572 298.006058,379.835655 C321.053497,386.751462 348.637956,399.748137 353.883887,425.914778 C356.60925,439.510088 352.907167,457.201321 350.685917,471.9939 C350.615507,472.4826 350.252319,472.877957 349.771335,472.989489 C349.290352,473.101021 348.79023,472.905852 348.511928,472.498014 C347.929046,471.631569 350.544135,451.766347 350.796192,449.040984 C353.442788,419.991444 343.927646,403.781045 315.949348,393.950832 C295.585263,386.777718 275.184421,379.714878 254.74682,372.762313 C251.806158,371.754086 247.116853,369.590599 240.678904,366.271852 C238.66245,365.232118 237.874772,363.310185 238.993274,361.356745 L251.218026,360.899892 Z"></path>
            <path fill="#443A82" id="路径" d="M851.790469,365.436914 C860.880265,367.390353 873.750912,369.910921 883.927703,368.146524 L888.35445,392.596027 C887.493256,399.233522 886.448271,405.093841 885.219494,410.176985 C882.793448,420.248752 877.269204,428.451099 868.646763,434.784024 C865.065457,435.361654 862.05653,435.645218 859.619982,435.634716 C810.626453,435.498185 760.966024,435.592706 710.638695,435.91828 C708.853293,435.928782 708.154886,436.805729 708.543473,438.549122 L711.410619,451.073191 L720.516168,476.38914 L730.236106,493.623519 C730.110078,493.896581 730.062817,494.495216 730.094324,495.419424 C730.115329,495.997054 730.272865,496.569433 730.566931,497.13656 C739.819514,515.263641 749.781006,532.975878 760.451408,550.273272 L754.890406,554.006862 L739.830016,562.009664 C732.446854,565.065852 726.035161,569.287802 720.594936,574.675515 C719.943789,574.864557 719.287392,574.880311 718.625743,574.722775 C718.541724,574.302681 718.562729,573.893089 718.688757,573.493999 C718.825288,573.031895 718.741269,572.6118 718.4367,572.233715 C714.582333,567.549661 709.940288,561.038195 704.510565,552.699318 C685.553798,523.56576 669.453674,496.621944 656.210193,471.867872 C644.379279,449.73414 644.899146,426.119574 668.655494,412.540017 C693.577604,398.298811 718.993325,384.997567 744.902658,372.636284 C746.740572,371.754086 748.883054,370.168229 751.330105,367.878713 C752.495867,367.77369 753.451582,367.311586 754.19725,366.492401 C754.622596,366.791719 755.646576,367.043775 756.197951,366.88624 C772.571136,362.349219 788.928568,360.374774 805.270247,360.962907 C820.614201,361.50903 836.120942,363.000365 851.790469,365.436914 Z"></path>
            <path fill="#FDFDFD" id="路径" d="M658.541717,407.262579 C652.996469,410.82288 647.151903,414.635239 641.00802,418.699654 C623.647613,430.215496 619.819501,454.649246 626.309962,472.403493 C628.21089,477.612665 632.469598,484.78578 639.086088,493.922837 C645.923127,503.385467 652.502858,512.496268 658.825281,521.25524 L658.46295,567.176827 L392.243772,567.381623 L389.156077,564.577492 L387.675244,549.060249 L390.888967,549.15477 C391.388209,549.163339 391.82084,548.810578 391.912947,548.319832 C398.623958,510.931416 405.088163,473.516743 411.305563,436.075815 C414.850111,414.714006 406.579499,394.454946 386.761538,384.593226 C382.581597,382.513758 375.208937,380.539313 364.643559,378.669893 C351.778163,376.39088 338.944274,374.006843 326.141892,371.517783 L326.70902,368.146524 C326.814043,367.547889 327.165872,367.248572 327.764507,367.248572 L657.580751,367.248572 C658.105869,367.248572 658.368428,367.511131 658.368428,368.036249 L658.541717,407.262579 Z"></path>
            <path fill="#FDFDFD" id="路径" d="M679.903526,395.352898 L670.59318,400.441293 L670.435645,367.768439 C670.435645,367.481324 670.67545,367.248572 670.971265,367.248572 L678.848039,367.248572 C679.415166,367.248572 679.69873,367.532135 679.69873,368.099263 L679.903526,395.352898 Z"></path>
            <path fill="#2E226A" id="路径" d="M751.330105,367.878713 C748.883054,370.168229 746.740572,371.754086 744.902658,372.636284 C718.993325,384.997567 693.577604,398.298811 668.655494,412.540017 C644.899146,426.119574 644.379279,449.73414 656.210193,471.867872 C669.453674,496.621944 685.553798,523.56576 704.510565,552.699318 C709.940288,561.038195 714.582333,567.549661 718.4367,572.233715 C718.741269,572.6118 718.825288,573.031895 718.688757,573.493999 C718.562729,573.893089 718.541724,574.302681 718.625743,574.722775 L709.961292,580.394052 C709.520193,580.677616 709.042335,580.787891 708.52772,580.724877 C708.244156,580.693369 708.049862,580.625104 707.944838,580.52008 C703.481334,573.746056 698.203896,567.329111 692.112524,561.269247 C688.793777,557.225837 684.776623,553.964853 680.061062,551.486295 C680.460151,549.448836 679.809005,547.358866 678.107622,545.216383 C675.797102,542.307228 673.329046,539.319306 670.703455,536.252616 L658.825281,521.25524 C652.502858,512.496268 645.923127,503.385467 639.086088,493.922837 C632.469598,484.78578 628.21089,477.612665 626.309962,472.403493 C619.819501,454.649246 623.647613,430.215496 641.00802,418.699654 C647.151903,414.635239 652.996469,410.82288 658.541717,407.262579 L670.59318,400.441293 L679.903526,395.352898 L691.797454,390.532313 C711.069292,381.27973 730.913509,373.72853 751.330105,367.878713 Z"></path>
            <path fill="#CECDF8" id="路径" d="M868.646763,434.784024 L907.305966,435.681976 C907.774759,435.690907 908.183268,436.003672 908.314193,436.4539 C909.50096,440.339775 909.54297,444.262408 908.440221,448.221799 C908.038736,449.638106 906.745871,450.615795 905.273758,450.616338 L886.747588,450.553324 L731.370362,450.663599 L711.410619,451.073191 L708.543473,438.549122 C708.154886,436.805729 708.853293,435.928782 710.638695,435.91828 C760.966024,435.592706 810.626453,435.498185 859.619982,435.634716 C862.05653,435.645218 865.065457,435.361654 868.646763,434.784024 Z"></path>
            <path fill="#CECDF8" id="路径" d="M282.614844,436.579929 C282.81964,440.486808 283.418275,450.584831 277.936041,450.679352 C275.520497,450.721362 269.486889,450.716111 259.835216,450.663599 L163.691323,450.317021 L165.770791,435.839512 C203.127701,435.765995 240.510866,435.744991 277.920287,435.776498 C278.802486,435.776498 280.367338,436.044308 282.614844,436.579929 Z"></path>
            <path fill="#FDFDFD" id="路径" d="M282.614844,436.579929 L288.01831,437.682677 C288.574935,437.798203 288.86375,438.13953 288.884755,438.706657 L294.319729,566.593946 L278.723718,567.239841 C274.11318,512.743073 271.088499,478.374087 269.649675,464.132881 C269.030036,458.04151 265.758549,453.551749 259.835216,450.663599 C269.486889,450.716111 275.520497,450.721362 277.936041,450.679352 C283.418275,450.584831 282.81964,440.486808 282.614844,436.579929 Z"></path>
            <path fill="#554998" id="路径" d="M163.691323,450.317021 L259.835216,450.663599 C265.758549,453.551749 269.030036,458.04151 269.649675,464.132881 C271.088499,478.374087 274.11318,512.743073 278.723718,567.239841 L280.299072,584.411206 C280.351584,584.988836 280.089025,585.31441 279.511395,585.387926 L269.696936,586.506428 C269.234832,586.55894 268.977524,586.348893 268.925012,585.876286 L266.892805,567.302855 L257.739994,466.338377 C257.511446,463.769194 255.364578,461.800092 252.793381,461.801356 L189.684675,461.706835 C188.655443,461.706835 188.140827,462.226702 188.140827,463.266436 L188.125073,567.318609 L188.077813,585.419433 C188.06731,585.955054 187.7995,586.222864 187.274382,586.222864 L177.49143,586.222864 C176.931996,586.22293 176.476056,585.774004 176.467449,585.214637 L176.278407,567.302855 L176.262653,462.636294 C176.262653,462.079669 175.989592,461.801356 175.443469,461.801356 L163.013921,461.801356 L163.691323,450.317021 Z"></path>
            <path fill="#554998" id="路径" d="M886.747588,450.553324 C892.04078,453.73554 895.317517,458.26731 896.577801,464.148634 C903.950461,498.585886 911.449149,533.191176 919.073865,567.964504 L920.223874,573.80907 C920.311645,574.258168 920.028791,574.699697 919.577978,574.817297 L909.952562,577.180329 C909.343425,577.337864 908.970591,577.106812 908.83406,576.487173 L906.817606,567.176827 L885.030452,466.700709 C884.415333,463.839031 881.883856,461.792863 878.949583,461.785602 L811.555912,461.722588 C811.233996,461.722588 810.973031,461.983553 810.973031,462.30547 L811.130566,567.381623 L810.878509,585.324912 C810.868007,585.923547 810.563439,586.222864 809.964804,586.222864 L800.213359,586.222864 C799.656733,586.222864 799.37317,585.944552 799.362667,585.387926 L799.142118,567.082305 L799.252392,462.494512 C799.252392,462.094292 798.92795,461.769849 798.527729,461.769849 L739.152613,461.769849 C736.222454,461.769849 734.552578,463.219175 734.142986,466.117828 L730.236106,493.623519 L720.516168,476.38914 C722.548376,465.865771 721.335353,458.556126 731.370362,450.663599 L886.747588,450.553324 Z"></path>
            <path fill="#FDFDFD" id="路径" d="M731.370362,450.663599 C721.335353,458.556126 722.548376,465.865771 720.516168,476.38914 L711.410619,451.073191 L731.370362,450.663599 Z"></path>
            <path fill="#CECDF8" id="路径" d="M928.384211,454.633492 C928.415718,454.728014 928.494486,454.84354 928.620514,454.980071 C928.757045,455.116601 928.91458,455.184867 929.09312,455.184867 L975.991428,455.342402 L1005.37179,455.42117 C1005.99357,455.423553 1006.58365,455.695943 1006.9888,456.167612 C1007.39395,456.639281 1007.57421,457.263697 1007.48277,457.878723 L991.398396,565.711747 C991.326965,566.184172 991.4854,566.662308 991.824805,566.998599 C992.16421,567.33489 992.643786,567.488911 993.115532,567.41313 C1001.6382,565.995311 1012.47664,566.152846 1018.99861,572.548786 C1027.97813,581.370772 1024.46509,599.172279 1011.67321,603.016144 C1009.64625,603.625282 1005.8549,603.92985 1000.29915,603.92985 C918.086643,603.950855 835.879387,603.956106 753.677383,603.945604 C750.348134,603.945604 742.518621,603.698798 730.188846,603.205187 C750.017309,596.074082 766.379993,584.768287 779.276896,569.287802 C780.075075,568.332087 780.537179,567.334362 780.663208,566.294628 C785.630826,567.533907 791.790463,567.796466 799.142118,567.082305 L799.362667,585.387926 C799.37317,585.944552 799.656733,586.222864 800.213359,586.222864 L809.964804,586.222864 C810.563439,586.222864 810.868007,585.923547 810.878509,585.324912 L811.130566,567.381623 L906.817606,567.176827 L908.83406,576.487173 C908.970591,577.106812 909.343425,577.337864 909.952562,577.180329 L919.577978,574.817297 C920.028791,574.699697 920.311645,574.258168 920.223874,573.80907 L919.073865,567.964504 L928.762296,566.861756 C929.038911,566.835375 929.291798,566.694241 929.459477,566.472666 C929.627155,566.251091 929.694267,565.969369 929.644494,565.695993 L911.307367,458.603386 C911.044808,457.070041 911.690703,456.229852 913.245053,456.082819 L928.384211,454.633492 Z"></path>
            <path fill="#FDFDFD" id="路径" d="M266.892805,567.302855 L188.125073,567.318609 L188.140827,463.266436 C188.140827,462.226702 188.655443,461.706835 189.684675,461.706835 L252.793381,461.801356 C255.364578,461.800092 257.511446,463.769194 257.739994,466.338377 L266.892805,567.302855 Z"></path>
            <path fill="#FDFDFD" id="路径" d="M906.817606,567.176827 L811.130566,567.381623 L810.973031,462.30547 C810.973031,461.983553 811.233996,461.722588 811.555912,461.722588 L878.949583,461.785602 C881.883856,461.792863 884.415333,463.839031 885.030452,466.700709 L906.817606,567.176827 Z"></path>
            <path fill="#FDFDFD" id="路径" d="M163.013921,461.801356 L175.443469,461.801356 C175.989592,461.801356 176.262653,462.079669 176.262653,462.636294 L176.278407,567.302855 L161.832405,567.14532 L163.013921,461.801356 Z"></path>
            <path fill="#FDFDFD" id="路径" d="M799.142118,567.082305 C791.790463,567.796466 785.630826,567.533907 780.663208,566.294628 C778.457711,558.213059 772.014511,560.387048 766.54803,556.448662 C764.206003,554.757781 762.173796,552.699318 760.451408,550.273272 C749.781006,532.975878 739.819514,515.263641 730.566931,497.13656 C730.272865,496.569433 730.115329,495.997054 730.094324,495.419424 C730.062817,494.495216 730.110078,493.896581 730.236106,493.623519 L734.142986,466.117828 C734.552578,463.219175 736.222454,461.769849 739.152613,461.769849 L798.527729,461.769849 C798.92795,461.769849 799.252392,462.094292 799.252392,462.494512 L799.142118,567.082305 Z"></path>
            <path fill="#FDFDFD" id="路径" d="M362.894915,545.767757 L361.398328,555.251392 C361.288195,555.895683 360.918733,556.46977 360.374348,556.8425 L354.451015,560.891162 C353.999413,561.19573 353.694844,561.610574 353.537309,562.135692 L351.914694,567.365869 L332.12824,567.649433 L347.267397,472.403493 C347.27175,472.224401 347.419868,472.089799 347.598227,472.101975 C347.776586,472.1159 347.917646,472.271662 347.913293,472.450753 C348.023568,475.365159 347.220137,478.673404 347.377672,481.288493 C348.574942,501.894131 349.420382,522.363239 349.913993,542.695816 C349.930981,543.387592 350.450319,543.966854 351.14277,544.066374 L362.894915,545.767757 Z"></path>
            <path fill="#554998" id="路径" d="M658.825281,521.25524 L670.703455,536.252616 L670.656194,568.815196 L670.073313,598.825701 C670.062811,599.350819 669.789749,599.613378 669.254129,599.613378 L659.234873,599.613378 C658.688751,599.613378 658.415689,599.340317 658.415689,598.794194 L658.46295,567.176827 L658.825281,521.25524 Z"></path>
            <path fill="#FDFDFD" id="路径" d="M670.703455,536.252616 C673.329046,539.319306 675.797102,542.307228 678.107622,545.216383 C679.809005,547.358866 680.460151,549.448836 680.061062,551.486295 L679.572702,568.720674 C676.926106,566.599197 673.953937,566.630704 670.656194,568.815196 L670.703455,536.252616 Z"></path>
            <path fill="#2E226A" id="路径" d="M374.284729,547.169823 L389.156077,564.577492 L392.243772,567.381623 C396.150651,572.842852 400.05228,575.977808 403.948657,576.78649 C410.313089,578.094034 421.95496,579.637882 420.899473,587.845479 C419.859738,595.769513 403.539065,595.344167 397.552717,593.737306 C379.835229,588.969232 364.622554,580.178754 351.914694,567.365869 L353.537309,562.135692 C353.694844,561.610574 353.999413,561.19573 354.451015,560.891162 L360.374348,556.8425 C360.918733,556.46977 361.288195,555.895683 361.398328,555.251392 L362.894915,545.767757 L374.284729,547.169823 Z"></path>
            <polygon points="387.675244 549.060249 389.156077 564.577492 374.284729 547.169823" fill="#FF6780" id="路径"></polygon>
            <path fill="#CE315C" id="路径" d="M760.451408,550.273272 C762.173796,552.699318 764.206003,554.757781 766.54803,556.448662 C772.014511,560.387048 778.457711,558.213059 780.663208,566.294628 C780.537179,567.334362 780.075075,568.332087 779.276896,569.287802 C766.379993,584.768287 750.017309,596.074082 730.188846,603.205187 L722.280565,603.536011 C708.480459,598.51063 729.700486,586.679717 732.772427,583.844079 C737.298946,579.664138 740.124082,574.670264 741.247835,568.862456 C747.118657,565.648733 751.66618,560.696868 754.890406,554.006862 L760.451408,550.273272 Z"></path>
            <path fill="#554998" id="路径" d="M692.112524,561.269247 L691.419368,598.746933 C691.408866,599.324563 691.1148,599.613378 690.53717,599.613378 L680.927507,599.613378 C680.318369,599.613378 680.00855,599.30881 679.998047,598.699673 L679.572702,568.720674 L680.061062,551.486295 C684.776623,553.964853 688.793777,557.225837 692.112524,561.269247 Z"></path>
            <path fill="#FF6780" id="路径" d="M754.890406,554.006862 C751.66618,560.696868 747.118657,565.648733 741.247835,568.862456 L739.830016,562.009664 L754.890406,554.006862 Z"></path>
            <path fill="#CECDF8" id="路径" d="M692.112524,561.269247 C698.203896,567.329111 703.481334,573.746056 707.944838,580.52008 C707.199171,581.67534 706.821085,582.788591 706.810583,583.859832 C706.803382,584.386475 707.179839,584.836879 707.692782,584.91532 L717.113402,586.506428 C717.68053,586.600949 718.027108,586.369897 718.153136,585.813272 L720.594936,574.675515 C726.035161,569.287802 732.446854,565.065852 739.830016,562.009664 L741.247835,568.862456 C740.124082,574.670264 737.298946,579.664138 732.772427,583.844079 C729.700486,586.679717 708.480459,598.51063 722.280565,603.536011 L364.722327,603.961357 C367.951804,595.53321 356.814046,593.595524 349.740704,592.587297 C343.134717,591.631582 338.21436,588.969232 334.979631,584.600249 L331.655633,568.626153 L332.12824,567.649433 L351.914694,567.365869 C364.622554,580.178754 379.835229,588.969232 397.552717,593.737306 C403.539065,595.344167 419.859738,595.769513 420.899473,587.845479 C421.95496,579.637882 410.313089,578.094034 403.948657,576.78649 C400.05228,575.977808 396.150651,572.842852 392.243772,567.381623 L658.46295,567.176827 L658.415689,598.794194 C658.415689,599.340317 658.688751,599.613378 659.234873,599.613378 L669.254129,599.613378 C669.789749,599.613378 670.062811,599.350819 670.073313,598.825701 L670.656194,568.815196 C673.953937,566.630704 676.926106,566.599197 679.572702,568.720674 L679.998047,598.699673 C680.00855,599.30881 680.318369,599.613378 680.927507,599.613378 L690.53717,599.613378 C691.1148,599.613378 691.408866,599.324563 691.419368,598.746933 L692.112524,561.269247 Z"></path>
            <path fill="#CECDF8" id="路径" d="M294.319729,566.593946 L294.445757,585.324912 L294.477264,592.06743 C294.477264,592.60305 294.739823,592.960131 295.264941,593.138671 C298.242362,594.162651 300.936218,594.131144 303.645828,595.706499 C307.909788,598.195559 312.4048,600.527084 317.130864,602.701074 C311.732648,603.509756 306.901561,603.914097 302.637601,603.914097 C260.995727,603.966608 167.98679,603.977111 23.6107902,603.945604 C17.6664521,603.945604 13.4602552,603.415234 10.9921996,602.354495 C-3.01270297,596.352394 -3.89490156,576.124841 9.84219076,569.476845 C18.2073238,565.428183 34.6067654,567.287102 44.1849215,567.586419 C45.0671201,578.487873 51.0219606,584.316685 62.049443,585.072855 C69.4693632,585.576969 98.0462961,588.822199 107.451163,582.725577 C107.902765,582.431511 108.391125,582.284478 108.916243,582.284478 C119.313584,582.273975 129.684668,582.284478 140.029497,582.315985 C152.238495,582.347492 158.933752,579.22829 161.832405,567.14532 L176.278407,567.302855 L176.467449,585.214637 C176.476056,585.774004 176.931996,586.22293 177.49143,586.222864 L187.274382,586.222864 C187.7995,586.222864 188.06731,585.955054 188.077813,585.419433 L188.125073,567.318609 L266.892805,567.302855 L268.925012,585.876286 C268.977524,586.348893 269.234832,586.55894 269.696936,586.506428 L279.511395,585.387926 C280.089025,585.31441 280.351584,584.988836 280.299072,584.411206 L278.723718,567.239841 L294.319729,566.593946 Z"></path>
            <path fill="#E5E7FF" id="路径" d="M305.063647,567.523405 L301.267042,579.874185 L302.889658,567.113813 C302.943773,566.685801 303.28083,566.348743 303.708842,566.294628 C304.717069,566.179102 305.168671,566.588694 305.063647,567.523405 Z"></path>
            <path fill="#2E226A" id="路径" d="M305.063647,567.523405 L311.821918,567.996011 L334.979631,584.600249 C338.21436,588.969232 343.134717,591.631582 349.740704,592.587297 C356.814046,593.595524 367.951804,595.53321 364.722327,603.961357 C352.733878,616.028574 330.1748,607.61618 317.130864,602.701074 C312.4048,600.527084 307.909788,598.195559 303.645828,595.706499 C300.936218,594.131144 298.242362,594.162651 295.264941,593.138671 C294.739823,592.960131 294.477264,592.60305 294.477264,592.06743 L294.445757,585.324912 L301.267042,579.874185 L305.063647,567.523405 Z"></path>
            <polygon points="331.655633 568.626153 334.979631 584.600249 311.821918 567.996011" fill="#FF6780" id="路径"></polygon>
            <path fill="#554998" id="路径" d="M718.625743,574.722775 C719.287392,574.880311 719.943789,574.864557 720.594936,574.675515 L718.153136,585.813272 C718.027108,586.369897 717.68053,586.600949 717.113402,586.506428 L707.692782,584.91532 C707.179839,584.836879 706.803382,584.386475 706.810481,583.859832 C706.821085,582.788591 707.199171,581.67534 707.944838,580.52008 C708.049862,580.625104 708.244156,580.693369 708.52772,580.724877 C709.042335,580.787891 709.520193,580.677616 709.961292,580.394052 L718.625743,574.722775 Z"></path>
        </g>
    </g>
</svg>